<?xml version="1.0" encoding="UTF-8"?> <svg xmlns="http://www.w3.org/2000/svg" xmlns:xlink="http://www.w3.org/1999/xlink" version="1.1" id="Layer_1" x="0px" y="0px" width="800px" height="800px" viewBox="0 0 800 800" style="enable-background:new 0 0 800 800;" xml:space="preserve"> <style type="text/css"> .st0{clip-path:url(#SVGID_00000122680257524664520670000007871662698729350561_);} .st1{fill:#FFFFFF;} .st2{opacity:0.6;} .st3{fill:#727EFE;} .st4{opacity:0.8;} .st5{opacity:0.9;} .st6{opacity:0.7;} .st7{fill:#6881FE;} .st8{fill:none;} .st9{opacity:0.5;} .st10{fill:#2F58A1;} .st11{fill:#B0BAFF;} .st12{clip-path:url(#SVGID_00000147190591915655729540000006427402248072099488_);} </style> <g> <g> <defs> <rect id="SVGID_1_" width="798.6" height="227.9"></rect> </defs> <clipPath id="SVGID_00000143603777131612289500000016330321260886548406_"> <use xlink:href="#SVGID_1_" style="overflow:visible;"></use> </clipPath> <g style="clip-path:url(#SVGID_00000143603777131612289500000016330321260886548406_);"> <path class="st1" d="M299.6,25C287.7,25,278,15.3,278,3.4V143c0,0,0,0,0,0v193.8c9.6-1.8,19.4-3.4,29.2-4.7 c4.8-0.6,9.4-1.1,14.1-1.5V143c0-0.4,0-0.7,0-1.1c0,0.4,0,0.7,0,1.1V3.4C321.2,15.3,311.6,25,299.6,25z M278,143 c0-7.1,3.4-13.3,8.7-17.3C281.4,129.6,278,135.9,278,143z M287.5,125.1C287.5,125.1,287.4,125.2,287.5,125.1 C287.4,125.2,287.5,125.1,287.5,125.1z"></path> <path class="st1" d="M525,121.4c0-7.1-3.4-13.4-8.7-17.3C521.6,108,525,114.3,525,121.4V-70c-7.2-2-14.4-3.9-21.6-5.6 c-1.1-0.3-2.3-0.5-3.3-0.7c-2.6-0.6-5.1-1.2-7.7-1.7c-1.5-0.3-2.9-0.6-4.4-0.8c-2-0.4-4-0.8-6-1.2v198.8 c-0.1,0.9-0.2,1.7-0.2,2.6v4.5c0,11.9,9.7,21.6,21.6,21.6c0,0,0,0,0,0c11.5,0,20.9-9.1,21.5-20.5c-0.6,11.4-10,20.5-21.6,20.5 c-11.9,0-21.6-9.7-21.6-21.6l0.1,153.7l43.2,43.2L525,125.9V121.4z"></path> <path class="st1" d="M551.7,173.2c0,11.9,9.6,21.5,21.5,21.5c0,0,0.1,0,0.1,0c11.1,0,20.2-8.3,21.4-19.1 c-1.2,10.8-10.4,19.1-21.5,19.1C561.3,194.8,551.7,185.1,551.7,173.2v76.2l43.2,23.6v-99.7c0,0,0,0,0,0c0,0,0,0,0,0V-69.5 c-14.1-6.6-28.5-12.4-43.2-17.6V173.2z M594.9,174.3c0-0.2,0-0.3,0-0.5C594.9,174,594.9,174.1,594.9,174.3z M594.8,175.4 c0-0.2,0-0.4,0-0.6C594.8,175,594.8,175.2,594.8,175.4z"></path> <path class="st1" d="M795.4-29.6c-1.2-1.9-2.4-3.8-3.6-5.7l-2-3.3l-4-6.1l-1.7-2.6c-1.9-2.9-3.9-5.7-5.9-8.5l-0.8-1.1 c-1.7-2.4-3.3-4.9-5.3-7.2l-2.1-2.8l-4.2-5.5l-2.4-3l-4.3-5.3l-2.4-2.9l-1.2-1.4v230.6c0,0.5-0.1,1.1-0.1,1.6v1.5 c0,11.9,9.7,21.6,21.6,21.6h0c11.9,0,21.6-9.7,21.6-21.6V147V-24.3l-1.2-2L795.4-29.6z"></path> <path class="st1" d="M777,170.1c-11.9,0-21.6-9.7-21.6-21.6v366.9c9,10.9,17.6,22.2,25.6,33.9l3-4.2l1.7-2.6c1.4-2,2.7-4,4-6.1 l2-3.3c1.2-1.9,2.4-3.8,3.6-5.8l2-3.3c0.4-0.7,0.8-1.4,1.2-2V148.5C798.6,160.4,789,170.1,777,170.1z"></path> <path class="st1" d="M825.4,285.3v372.2c25.6-58.7,38.7-122,38.7-186C864.1,407.4,851,344,825.4,285.3z"></path> <path class="st1" d="M346.4,345c14.1-0.7,28.2-1.2,42.3-2c0.3,0,0.6-0.1,1-0.1V-49.7c-14.6,0.2-29,1.2-43.2,2.7V345z"></path> <path class="st1" d="M312.9-58.2c-1.7,0.3-4,0.8-6,1.2c-2,0.4-3.3,0.7-5.2,1l-5.9,1.3c-1.7,0.4-3.3,0.8-5.2,1.2 c-1.8,0.4-4,1-5.9,1.5c-2,0.5-3.3,0.8-5,1.3l-1.6,0.4v50.1C278.1,0.3,278,1,278,1.7v1.5c0,11.9,9.6,21.5,21.5,21.5 c0,0,0.1,0,0.1,0c11.9,0,21.6-9.6,21.6-21.5V1.7v-61.4l-3.1,0.5C316.4-58.8,314.6-58.5,312.9-58.2z"></path> <path class="st1" d="M252.8,170.9v1.1c-0.3,2.6-1.2,5.2-2.4,7.5c-0.7,1.2-1.5,2.3-2.3,3.3c-0.5,0.6-1,1.2-1.6,1.7 c-5.2,5.1-12.6,7.2-19.6,5.6c7,1.6,14.4-0.6,19.5-5.6c0.5-0.5,1.1-1.1,1.6-1.7c0.9-1,1.7-2.1,2.3-3.3c1.3-2.3,2.1-4.9,2.4-7.5 v-1.1v-1.6c0-11.8-9.6-21.5-21.4-21.5c-11.9,0-21.5,9.6-21.5,21.5c0,0,0,0,0-0.1v2.1c-0.1-0.7-0.1-1.4-0.1-2.1v-1.1 c0,0.4,0,0.8,0,1.2c0,0.7,0.1,1.4,0.1,2.1v125.8c1.7-0.5,3.3-1,5-1.5c12.6-4,25.3-7.6,38.1-10.7l0-115.8V170.9z"></path> <path class="st1" d="M231.2,147.6c11.9,0,21.6,9.7,21.6,21.6V-100c-0.7,0.2-1.5,0.5-2.2,0.7l-5.6,1.9l-5.3,1.9 c-1.9,0.7-3.7,1.4-5.6,2.1c-1.9,0.7-3.3,1.3-5.2,2l-5.5,2.2l-5.1,2.1l-5.4,2.3c-1.1,0.5-2.2,1-3.3,1.4v251.6 C210.2,156.7,219.6,147.6,231.2,147.6z"></path> <path class="st1" d="M171.7-54.7c-1.4,0.8-2.8,1.6-4.2,2.4c-2.2,1.2-4.4,2.5-6.6,3.8c-1.3,0.7-2.6,1.5-3.9,2.3 c-2.4,1.5-4.9,3-7.3,4.5l-2.9,1.8c-3.3,2.1-6.6,4.3-10,6.6v369.5c9.8-4.6,19.8-8.9,29.9-13c4.3-1.8,8.7-3.5,13.2-5.2v-377l-2,1 C175.9-56.9,173.8-55.7,171.7-54.7z"></path> <path class="st1" d="M111.4-90.7l-0.6,0.5c-3.3,2.7-6.8,5.4-10.2,8.2l-1.9,1.6c-2.7,2.3-5.4,4.6-8.1,6.9l-3.1,2.8 c-2.3,2.1-4.7,4.2-6.9,6.3l-2.9,2.7c-2.9,2.8-5.8,5.5-8.6,8.3l-0.7,0.7V92.9c0-11.9,9.6-21.6,21.5-21.6c0,0,0,0,0.1,0 c7.5,0,14,3.8,17.9,9.5c-3.9-5.7-10.4-9.4-17.9-9.4c-11.9,0-21.6,9.7-21.6,21.6v204.6c14.1-9,28.5-17.3,43.2-25V93.1 c0-0.7,0-1.4-0.1-2.1V-90.7z"></path> <path class="st1" d="M39.5-64l-1.8,2.2c-2.2,2.6-4.3,5.3-6.4,7.9l-1.5,1.9c-1.6,2.1-3.3,4.2-4.8,6.3l-2.2,3l-4,5.4 c-0.8,1.1-1.5,2.1-2.3,3.3l-3.9,5.6l-2,2.9c-1.7,2.5-3.3,5.1-5,7.6l-0.7,1c-1.7,2.6-3.3,5.3-5,8v155.4C0,134.6,9.7,125,21.6,125 c11.9,0,21.6,9.7,21.6,21.6V-68.2L39.5-64z"></path> <path class="st1" d="M43.2,146.6L43.2,146.6C43.2,146.6,43.2,146.6,43.2,146.6c0-11.9-9.7-21.6-21.6-21.6 C9.7,125,0,134.7,0,146.6c0,0,0,0,0,0v110c0.1-11.9,9.7-21.5,21.6-21.5c11.9,0,21.6,9.6,21.6,21.5V146.6 C43.2,146.6,43.2,146.6,43.2,146.6C43.2,146.6,43.2,146.6,43.2,146.6z"></path> <path class="st1" d="M-52.7,591.7l0.5-0.6c1.5-1.5,3-3.1,4.6-4.5c5.5-4.9,10.9-10,16.4-15V288.8 C-71.9,384.6-79.4,491.2-52.7,591.7z"></path> <path class="st1" d="M454.3-12.4c-2.6-0.3-5.2-0.6-7.8-0.9c-1.4,0-2.8-0.3-4.3-0.4c-2.4-0.2-4.7-0.4-7.1-0.6 c-1.5,0-3.1-0.2-4.6-0.3c-2.2,0-4.5-0.3-6.6-0.4c-1.6,0-3.3-0.2-4.9-0.2s-2.6,0-3.9,0v73.1c0.1,11.8,9.6,21.3,21.3,21.4 c11.8,0,21.4-9.6,21.5-21.4c0,11.9-9.7,21.6-21.6,21.6c-11.9,0-21.6-9.7-21.6-21.6v1.5c0,0,0,0,0,0v297.9l43.2,43.2V59.2 c0,11.9-9.7,21.6-21.6,21.6c-11.1,0-20.3-8.4-21.5-19.2c1.2,10.8,10.4,19.2,21.5,19.1c11.9,0,21.5-9.6,21.5-21.5v-1.3 c0,0,0,0,0,0V-12c-0.1,0-0.3,0-0.4,0C456.5-12.2,455.3-12.3,454.3-12.4z M414.9,60.7c0,0.3,0,0.6,0.1,0.8 C414.9,61.2,414.9,61,414.9,60.7z M414.8,59.8c0,0.2,0,0.4,0,0.6C414.9,60.2,414.9,60,414.8,59.8z"></path> <path class="st1" d="M212.3,307.7l-1.2-2.6C211.5,306,211.8,306.9,212.3,307.7z"></path> <path class="st1" d="M723.1-65.2l-2.7-2.6c-3.2-3-6.3-6.1-9.6-9l-1.4-1.3c-2.8-2.5-5.7-5-8.5-7.5l-3.1-2.7 c-2.4-2-4.9-4.1-7.3-6.1l-2-1.6V386c0,11.9,9.7,21.6,21.6,21.6c0,0,0.1,0,0.1,0c11.8-0.1,21.4-9.7,21.4-21.6V-56.8l-1.6-1.6 C727.7-60.7,725.4-63,723.1-65.2z"></path> <path class="st1" d="M525,121.4C525,121.4,525,121.4,525,121.4L525,121.4C525,121.4,525,121.4,525,121.4z"></path> <path class="st1" d="M655.1-74.2l-4.4-2.9c-1.8-1.2-3.6-2.3-5.4-3.3c-1.8-1.1-3-1.9-4.5-2.8c-1.5-0.9-3.7-2.2-5.5-3.3l-4.4-2.6 c-1.9-1.1-3.9-2.2-5.8-3.3c-1.2-0.7-2.4-1.4-3.6-2c-1.8,3.2-2.8,6.9-2.8,10.6l-0.1,40c0,0.4,0,0.7,0,1.1c0-0.4,0-0.7,0-1.1V200 l0,0v127.8c14.4,14.4,28.8,28.8,43.2,43.2V200c0-0.2,0-0.4,0-0.5c0,0.2,0,0.3,0,0.5V-43.9c0,0.4,0,0.7,0,1.1c0-0.4,0-0.7,0-1.1 v-25.9l-1.6-1.1L655.1-74.2z M640.4,178.4c-0.1,0-0.1,0-0.2,0c-11.5,0-20.9,9.1-21.5,20.4c0.6-11.4,10-20.5,21.6-20.5 c10.8,0,19.8,8,21.4,18.4C660.1,186.4,651.2,178.4,640.4,178.4z M661.8,198.3c0,0.2,0,0.4,0,0.6 C661.9,198.7,661.9,198.5,661.8,198.3z M661.7,197c0,0.3,0.1,0.5,0.1,0.8C661.8,197.5,661.7,197.2,661.7,197z"></path> </g> <g style="clip-path:url(#SVGID_00000143603777131612289500000016330321260886548406_);"> <g class="st2"> <path class="st3" d="M299.7,121.4c11.9,0,21.6,9.7,21.6,21.6l0,0V3.4c0,11.9-9.7,21.6-21.6,21.6C287.7,25,278,15.3,278,3.4V143 c0-11.9,9.6-21.6,21.5-21.6C299.6,121.4,299.6,121.4,299.7,121.4z"></path> </g> <g class="st4"> <path class="st3" d="M525,125.9c0,11.9-9.7,21.6-21.6,21.6c-11.9,0-21.6-9.7-21.6-21.6l0,0l0.1,153.7l43.2,43.2L525,125.9z"></path> </g> <g class="st2"> <path class="st3" d="M503.4,147.4c11.9,0,21.5-9.7,21.5-21.6v-4.5c0-11.9-9.7-21.6-21.6-21.6c-11.9,0-21.6,9.7-21.6,21.6v4.5 C481.8,137.8,491.5,147.4,503.4,147.4C503.4,147.4,503.4,147.4,503.4,147.4z"></path> </g> <g class="st4"> <path class="st3" d="M503.4,147.4c11.9,0,21.5-9.7,21.5-21.6v-4.5c0-11.9-9.7-21.6-21.6-21.6c-11.9,0-21.6,9.7-21.6,21.6v4.5 C481.8,137.8,491.5,147.4,503.4,147.4C503.4,147.4,503.4,147.4,503.4,147.4z"></path> </g> <g class="st5"> <path class="st3" d="M573.3,194.7c11.9,0,21.6-9.6,21.6-21.5c0,0,0,0,0,0V-69.5c-14.1-6.6-28.5-12.4-43.2-17.6v260.2 c0,11.9,9.6,21.5,21.5,21.5C573.2,194.7,573.3,194.7,573.3,194.7z"></path> </g> <g class="st6"> <path class="st3" d="M594.9,173.2c0,11.9-9.7,21.6-21.6,21.6s-21.6-9.7-21.6-21.6v76.2l43.2,23.6V173.2z"></path> </g> <g class="st6"> <path class="st3" d="M777.1,125.4c11.9,0,21.6,9.7,21.6,21.6V-24.3l-1.2-2l-2-3.3c-1.2-1.9-2.4-3.8-3.6-5.7l-2-3.3l-4-6.1 l-1.7-2.6c-1.9-2.9-3.9-5.7-5.9-8.5l-0.8-1.1c-1.7-2.4-3.3-4.9-5.3-7.2l-2.1-2.8l-4.2-5.5l-2.4-3l-4.3-5.3l-2.4-2.9l-1.2-1.4 v232.1C755.6,135,765.2,125.4,777.1,125.4z"></path> </g> <g class="st2"> <path class="st3" d="M784.1,545.1l1.7-2.6c1.4-2,2.7-4,4-6.1l2-3.3c1.2-1.9,2.4-3.8,3.6-5.8l2-3.3c0.4-0.7,0.8-1.4,1.2-2V148.5 c0,11.9-9.7,21.6-21.6,21.6c-11.9,0-21.6-9.7-21.6-21.6v366.9c9,10.9,17.6,22.2,25.6,33.9L784.1,545.1z"></path> </g> <g class="st4"> <path class="st3" d="M777.1,170.1c11.9,0,21.6-9.7,21.6-21.6V147c0-11.9-9.7-21.6-21.6-21.6c-11.9,0-21.6,9.7-21.6,21.6v1.5 C755.4,160.4,765.1,170.1,777.1,170.1L777.1,170.1z"></path> </g> <path class="st3" d="M864.1,471.5c0.1-64.1-13.1-127.4-38.7-186.2v372.2C851,598.8,864.1,535.5,864.1,471.5z"></path> <g class="st6"> <path class="st3" d="M458.1,59.2c0,11.9-9.7,21.6-21.6,21.6s-21.6-9.7-21.6-21.6l0,0v298.1l43.2,43.2V59.2z"></path> </g> <path class="st7" d="M436.5,80.7c11.9,0,21.5-9.6,21.5-21.5v-1.3c0,11.9-9.7,21.6-21.6,21.6c-11.9,0-21.6-9.7-21.6-21.6v1.5 C414.9,71.2,424.6,80.8,436.5,80.7z"></path> <g class="st5"> <path class="st3" d="M389.7,342.9V-49.7c-14.6,0.2-29,1.2-43.2,2.7v392c14.1-0.7,28.2-1.2,42.3-2 C389,343,389.3,342.9,389.7,342.9z"></path> </g> <g class="st4"> <path class="st3" d="M321.2,330.6V143c0-11.9-9.7-21.6-21.6-21.6S278,131.1,278,143v193.8c9.6-1.8,19.4-3.4,29.2-4.7 C311.9,331.5,316.6,331,321.2,330.6z"></path> </g> <g class="st2"> <path class="st3" d="M299.7-19.9c11.9,0,21.6,9.7,21.6,21.6v-61.4l-3.1,0.5c-1.7,0.3-3.5,0.6-5.2,0.9s-4,0.8-6,1.2 c-2,0.4-3.3,0.7-5.2,1l-5.9,1.3c-1.7,0.4-3.3,0.8-5.2,1.2s-4,1-5.9,1.5c-2,0.5-3.3,0.8-5,1.3l-1.6,0.4V1.7 C278.1-10.2,287.8-19.9,299.7-19.9z"></path> </g> <g class="st5"> <path class="st3" d="M299.7,24.7c11.9,0,21.6-9.6,21.6-21.5V1.7c0-11.9-9.7-21.6-21.6-21.6c-11.9,0-21.6,9.7-21.6,21.6v1.5 C278,15.1,287.7,24.7,299.7,24.7C299.6,24.7,299.6,24.7,299.7,24.7z"></path> </g> <g class="st6"> <path class="st3" d="M252.8,169.2v1.6v1.1c-0.3,2.6-1.2,5.2-2.4,7.5c-0.7,1.2-1.5,2.3-2.3,3.3c-0.5,0.6-1,1.2-1.6,1.7 c-5.2,5.1-12.6,7.2-19.6,5.6c-3.3-0.6-6.3-2-8.9-4.1c-1.2-1-2.3-2.1-3.3-3.3c-0.9-1-1.7-2.1-2.3-3.3c-0.5-0.8-0.8-1.7-1.2-2.6 c-1-2.4-1.4-5-1.4-7.6v128.1c1.7-0.5,3.3-1,5-1.5c12.6-4,25.3-7.6,38.1-10.7L252.8,169.2z"></path> </g> <g class="st2"> <path class="st3" d="M226.9,190.1c-3.3-0.6-6.3-2-8.9-4.1C220.6,188.1,223.6,189.5,226.9,190.1z"></path> </g> <g class="st2"> <path class="st3" d="M209.6,169.2c0-11.9,9.7-21.6,21.6-21.6c11.9,0,21.6,9.7,21.6,21.6V-100c-0.7,0.2-1.5,0.5-2.2,0.7l-5.6,1.9 l-5.3,1.9c-1.9,0.7-3.7,1.4-5.6,2.1s-3.3,1.3-5.2,2l-5.5,2.2l-5.1,2.1l-5.4,2.3c-1.1,0.5-2.2,1-3.3,1.4L209.6,169.2 c0,2.5,0.5,5.1,1.5,7.5C210.1,174.4,209.6,171.8,209.6,169.2z"></path> </g> <g class="st6"> <path class="st3" d="M180,317.9v-377l-2,1c-2.1,1.1-4.2,2.3-6.3,3.3c-1.4,0.8-2.8,1.6-4.2,2.4c-2.2,1.2-4.4,2.5-6.6,3.8 c-1.3,0.7-2.6,1.5-3.9,2.3c-2.4,1.5-4.9,3-7.3,4.5l-2.9,1.8c-3.3,2.1-6.6,4.3-10,6.6l0,0v369.5c9.8-4.6,19.8-8.9,29.9-13 C171.1,321.3,175.5,319.6,180,317.9z"></path> </g> <g class="st2"> <path class="st3" d="M89.9,71.3c11.9,0,21.5,9.6,21.5,21.5c0,0,0,0,0,0V-90.7l-0.6,0.5c-3.3,2.7-6.8,5.4-10.2,8.2l-1.9,1.6 c-2.7,2.3-5.4,4.6-8.1,6.9l-3.1,2.8c-2.3,2.1-4.7,4.2-6.9,6.3l-2.9,2.7c-2.9,2.8-5.8,5.5-8.6,8.3l-0.7,0.7V92.9 C68.3,81,77.9,71.4,89.9,71.3C89.9,71.3,89.9,71.3,89.9,71.3z"></path> </g> <g class="st2"> <path class="st3" d="M111.5,272.6V93.1c0-11.9-9.7-21.6-21.6-21.6s-21.6,9.7-21.6,21.6v204.6C82.4,288.6,96.8,280.3,111.5,272.6 z"></path> </g> <g class="st4"> <path class="st3" d="M111.5,272.6V93.1c0-11.9-9.7-21.6-21.6-21.6s-21.6,9.7-21.6,21.6v204.6C82.4,288.6,96.8,280.3,111.5,272.6 z"></path> </g> <g class="st2"> <path class="st3" d="M21.6,235.1c11.9,0,21.6,9.6,21.6,21.5V-68.2L39.5-64l-1.8,2.2c-2.2,2.6-4.3,5.3-6.4,7.9l-1.5,1.9 c-1.6,2.1-3.3,4.2-4.8,6.3l-2.2,3l-4,5.4c-0.8,1.1-1.5,2.1-2.3,3.3l-3.9,5.6l-2,2.9c-1.7,2.5-3.3,5.1-5,7.6l-0.7,1 c-1.7,2.6-3.3,5.3-5,8v155.4C0,134.6,9.7,125,21.6,125c11.9,0,21.6,9.7,21.6,21.6c0,11.9-9.7,21.6-21.6,21.6l0,0 C9.7,168.1,0,158.5,0,146.5v110C0.1,244.7,9.7,235.1,21.6,235.1z"></path> </g> <g class="st2"> <path class="st3" d="M21.6,168.2c11.9,0,21.6-9.7,21.6-21.6c0-11.9-9.7-21.6-21.6-21.6C9.7,125,0,134.7,0,146.6v0l0,0 C0,158.5,9.7,168.2,21.6,168.2z"></path> </g> <g class="st4"> <path class="st3" d="M21.6,168.2c11.9,0,21.6-9.7,21.6-21.6c0-11.9-9.7-21.6-21.6-21.6C9.7,125,0,134.7,0,146.6v0l0,0 C0,158.5,9.7,168.2,21.6,168.2z"></path> </g> <path class="st3" d="M-31.2,571.6V288.8c-40.6,95.8-48.2,202.4-21.5,303l0.5-0.6c1.5-1.5,3-3.1,4.6-4.5 C-42.1,581.7-36.7,576.7-31.2,571.6z"></path> <path class="st7" d="M436.5,79.2c11.8,0,21.5-9.6,21.5-21.4V-12c-0.1,0-0.3,0-0.4,0c-1.1-0.2-2.3-0.3-3.3-0.4 c-2.6-0.3-5.2-0.6-7.8-0.9c-1.4,0-2.8-0.3-4.3-0.4c-2.4-0.2-4.7-0.4-7.1-0.6c-1.5,0-3.1-0.2-4.6-0.3c-2.2,0-4.5-0.3-6.6-0.4 c-1.6,0-3.3-0.2-4.9-0.2c-1.6-0.1-2.6,0-3.9,0v73.1C415.3,69.6,424.8,79.1,436.5,79.2z"></path> <g class="st4"> <path class="st3" d="M436.5,79.2c11.8,0,21.5-9.6,21.5-21.4V-12c-0.1,0-0.3,0-0.4,0c-1.1-0.2-2.3-0.3-3.3-0.4 c-2.6-0.3-5.2-0.6-7.8-0.9c-1.4,0-2.8-0.3-4.3-0.4c-2.4-0.2-4.7-0.4-7.1-0.6c-1.5,0-3.1-0.2-4.6-0.3c-2.2,0-4.5-0.3-6.6-0.4 c-1.6,0-3.3-0.2-4.9-0.2c-1.6-0.1-2.6,0-3.9,0v73.1C415.3,69.6,424.8,79.1,436.5,79.2z"></path> </g> <g class="st6"> <path class="st3" d="M252.8,297.5L252.8,297.5v1.6V297.5z"></path> </g> <g class="st4"> <path class="st3" d="M252.8,297.5L252.8,297.5v1.6V297.5z"></path> </g> <g class="st2"> <path class="st3" d="M231.3,147.7c-11.9,0-21.5,9.7-21.5,21.6c0,2.6,0.5,5.2,1.4,7.6c0.3,0.9,0.7,1.8,1.2,2.6 c0.7,1.2,1.4,2.3,2.3,3.3c1,1.2,2.1,2.3,3.3,3.3c2.6,2,5.7,3.4,8.9,4c7,1.6,14.4-0.6,19.5-5.6c0.5-0.5,1.1-1.1,1.6-1.7 c0.9-1,1.7-2.1,2.3-3.3c1.3-2.3,2.1-4.9,2.4-7.5v-1.1v-1.6l0,0C252.7,157.4,243.1,147.7,231.3,147.7z"></path> </g> <g class="st4"> <path class="st3" d="M231.3,147.7c-11.9,0-21.5,9.7-21.5,21.6c0,2.6,0.5,5.2,1.4,7.6c0.3,0.9,0.7,1.8,1.2,2.6 c0.7,1.2,1.4,2.3,2.3,3.3c1,1.2,2.1,2.3,3.3,3.3c2.6,2,5.7,3.4,8.9,4c7,1.6,14.4-0.6,19.5-5.6c0.5-0.5,1.1-1.1,1.6-1.7 c0.9-1,1.7-2.1,2.3-3.3c1.3-2.3,2.1-4.9,2.4-7.5v-1.1v-1.6l0,0C252.7,157.4,243.1,147.7,231.3,147.7z"></path> </g> <g class="st6"> <path class="st3" d="M231.3,190.8c-1.5,0-2.9-0.2-4.4-0.5C228.3,190.6,229.8,190.8,231.3,190.8z"></path> </g> <g class="st2"> <path class="st3" d="M231.3,190.8c-1.5,0-2.9-0.2-4.4-0.5C228.3,190.6,229.8,190.8,231.3,190.8z"></path> </g> <g class="st2"> <path class="st3" d="M231.3,190.8c-1.5,0-2.9-0.2-4.4-0.5C228.3,190.6,229.8,190.8,231.3,190.8z"></path> </g> <g class="st4"> <path class="st3" d="M231.3,190.8c-1.5,0-2.9-0.2-4.4-0.5C228.3,190.6,229.8,190.8,231.3,190.8z"></path> </g> <g class="st6"> <path class="st8" d="M212.3,307.7c-0.5-0.8-0.8-1.7-1.2-2.6"></path> </g> <g class="st2"> <path class="st8" d="M212.3,307.7c-0.5-0.8-0.8-1.7-1.2-2.6"></path> </g> <g class="st4"> <path class="st8" d="M212.3,307.7c-0.5-0.8-0.8-1.7-1.2-2.6"></path> </g> <g class="st6"> <path class="st8" d="M212.3,307.7c-0.5-0.8-0.8-1.7-1.2-2.6"></path> </g> <g class="st6"> <path class="st8" d="M212.3,307.7c-0.5-0.8-0.8-1.7-1.2-2.6"></path> </g> <g class="st4"> <path class="st8" d="M212.3,307.7c-0.5-0.8-0.8-1.7-1.2-2.6"></path> </g> <g class="st2"> <path class="st8" d="M212.3,307.7c-0.5-0.8-0.8-1.7-1.2-2.6"></path> </g> <g class="st4"> <path class="st8" d="M212.3,307.7c-0.5-0.8-0.8-1.7-1.2-2.6"></path> </g> <g class="st6"> <path class="st8" d="M252.8,300.2v-1.1"></path> </g> <g class="st2"> <path class="st8" d="M252.8,300.2v-1.1"></path> </g> <g class="st4"> <path class="st8" d="M252.8,300.2v-1.1"></path> </g> <g class="st6"> <path class="st8" d="M252.8,300.2v-1.1"></path> </g> <g class="st6"> <path class="st8" d="M252.8,300.2v-1.1"></path> </g> <g class="st4"> <path class="st8" d="M252.8,300.2v-1.1"></path> </g> <g class="st2"> <path class="st8" d="M252.8,300.2v-1.1"></path> </g> <g class="st4"> <path class="st8" d="M252.8,300.2v-1.1"></path> </g> <g class="st5"> <path class="st3" d="M710.1,407.6c11.8-0.1,21.4-9.7,21.4-21.6V-56.8l-1.6-1.6c-2.3-2.3-4.6-4.6-6.8-6.8l-2.7-2.6 c-3.2-3-6.3-6.1-9.6-9l-1.4-1.3c-2.8-2.5-5.7-5-8.5-7.5l-3.1-2.7c-2.4-2-4.9-4.1-7.3-6.1l-2-1.6V386c0,11.9,9.7,21.6,21.6,21.6 C710.1,407.6,710.1,407.6,710.1,407.6z"></path> </g> <g class="st2"> <path class="st3" d="M503.4,99.8c11.9,0,21.5,9.6,21.5,21.5c0,0,0,0,0,0V-70c-7.2-2-14.4-3.9-21.6-5.6c-1.1-0.3-2.3-0.5-3.3-0.7 c-2.6-0.6-5.1-1.2-7.7-1.7c-1.5-0.3-2.9-0.6-4.4-0.8c-2-0.4-4-0.8-6-1.2v201.4C481.9,109.5,491.5,99.9,503.4,99.8z"></path> </g> <g class="st9"> <path class="st3" d="M640.2-22.3c-11.9,0-21.5-9.6-21.5-21.5v0V200c0-11.9,9.7-21.6,21.6-21.6c11.9,0,21.6,9.7,21.6,21.6l0,0 V-43.9c0,11.9-9.6,21.5-21.5,21.5C640.3-22.3,640.3-22.3,640.2-22.3z"></path> </g> <g class="st9"> <path class="st3" d="M618.7-43.9L618.7-43.9c0,11.9,9.7,21.6,21.6,21.6c11.9,0,21.6-9.7,21.6-21.6v-25.9l-1.6-1.1l-5.2-3.3 l-4.4-2.9c-1.8-1.2-3.6-2.3-5.4-3.3c-1.8-1.1-3-1.9-4.5-2.8c-1.5-0.9-3.7-2.2-5.5-3.3l-4.4-2.6c-1.9-1.1-3.9-2.2-5.8-3.3 c-1.2-0.7-2.4-1.4-3.6-2c-1.8,3.2-2.8,6.9-2.8,10.6L618.7-43.9z"></path> </g> <g class="st6"> <path class="st3" d="M618.7-43.9L618.7-43.9c0,11.9,9.7,21.6,21.6,21.6c11.9,0,21.6-9.7,21.6-21.6v-25.9l-1.6-1.1l-5.2-3.3 l-4.4-2.9c-1.8-1.2-3.6-2.3-5.4-3.3c-1.8-1.1-3-1.9-4.5-2.8c-1.5-0.9-3.7-2.2-5.5-3.3l-4.4-2.6c-1.9-1.1-3.9-2.2-5.8-3.3 c-1.2-0.7-2.4-1.4-3.6-2c-1.8,3.2-2.8,6.9-2.8,10.6L618.7-43.9z"></path> </g> <path class="st3" d="M640.2,178.4c-11.9,0-21.5,9.6-21.5,21.5v0v127.8c14.4,14.4,28.8,28.8,43.2,43.2V200 c0-11.9-9.6-21.6-21.5-21.6C640.3,178.4,640.3,178.4,640.2,178.4z"></path> </g> </g> <path class="st8" d="M321.2,401.8c-4.7,0.4-9.3,0.9-14,1.5c-9.8,1.3-19.5,2.8-29.2,4.7c9.6-1.8,19.4-3.4,29.2-4.7 C311.9,402.7,316.6,402.2,321.2,401.8z"></path> <g> <g> <rect x="0" y="227.9" class="st10" width="798.6" height="439.2"></rect> <polyline class="st10" points="0,667.1 399.3,800 798.6,667.1 "></polyline> </g> </g> <g> <path class="st11" d="M193.1,375.3c-3,2-6.5,3.6-10.5,4.8c-4,1.1-7.9,1.7-11.9,1.7c-5.7,0-10.9-0.9-15.5-2.7 c-4.7-1.8-8.7-4.3-12-7.5c-3.4-3.2-6-7-7.8-11.4c-1.8-4.4-2.8-9.2-2.8-14.3c0-5.2,0.9-10,2.8-14.4c1.8-4.4,4.4-8.2,7.8-11.4 c3.4-3.2,7.4-5.7,12-7.5c4.7-1.8,9.8-2.7,15.5-2.7c4.1,0,7.9,0.6,11.6,1.7c3.6,1.1,7.1,2.6,10.2,4.4l-4.9,13.7 c-2.6-1.5-5.3-2.6-8.1-3.4c-2.8-0.8-5.7-1.2-8.5-1.2c-3.2,0-6.2,0.5-8.8,1.4c-2.6,1-4.8,2.3-6.7,4.1c-1.8,1.8-3.2,4-4.2,6.6 c-1,2.6-1.5,5.5-1.5,8.7s0.5,6.1,1.5,8.7c1,2.6,2.4,4.8,4.2,6.6c1.8,1.8,4,3.2,6.7,4.2c2.6,1,5.6,1.5,8.8,1.5 c2.9,0,5.8-0.4,8.8-1.3c3-0.9,5.9-2.2,8.6-3.8L193.1,375.3z"></path> <path class="st11" d="M207.9,380.7V311h44.1v14.8h-28v12.5h25.5v14.1h-25.5v13.6h28v14.7H207.9z"></path> <path class="st11" d="M307.8,380.7l-11.9-22.7c-0.5,0.1-1,0.1-1.4,0.1c-0.4,0-0.9,0-1.4,0c-1.2,0-2.2,0-3,0 c-0.8,0-1.8-0.1-2.9-0.1v22.8H271v-69c3-0.3,6.1-0.6,9.4-0.8c3.3-0.2,7-0.3,11.1-0.3c5.5,0,10.1,0.6,13.9,1.8 c3.8,1.2,6.9,2.9,9.4,4.9c2.4,2.1,4.2,4.5,5.3,7.4c1.1,2.8,1.7,5.8,1.7,9c0,4.2-1,8-3.1,11.6c-2.1,3.5-5,6.4-8.8,8.6l16.4,26.9 H307.8z M305,334.2c0-2.9-1-5.2-3.1-6.8c-2.1-1.6-4.9-2.4-8.4-2.4c-1.3,0-2.3,0-3.2,0.1c-0.9,0.1-1.9,0.2-3,0.4v19.2 c1.1,0.1,2,0.2,2.7,0.2c0.7,0,1.5,0,2.5,0c3.9,0,6.9-0.9,9.2-2.7C303.8,340.4,305,337.7,305,334.2z"></path> <path class="st11" d="M370.9,325.8v54.9h-16.2v-54.9h-20.9V311h58v14.8H370.9z"></path> <path class="st11" d="M405.5,380.7V311h16.2v69.7H405.5z"></path> <path class="st11" d="M458,325.8v15.4h24v14.2h-24v25.3h-16.2V311h44.1v14.8H458z"></path> <path class="st11" d="M500.9,380.7V311h16.2v69.7H500.9z"></path> <path class="st11" d="M537.2,380.7V311h44.1v14.8h-28v12.5h25.5v14.1h-25.5v13.6h28v14.7H537.2z"></path> <path class="st11" d="M663.3,345.2c0,5.1-0.8,9.9-2.5,14.3c-1.6,4.4-4.2,8.2-7.6,11.4c-3.4,3.2-7.7,5.7-13,7.6 c-5.3,1.8-11.5,2.8-18.7,2.8c-2,0-3.9,0-5.6,0c-1.7,0-3.3-0.1-4.9-0.2c-1.6-0.1-3.3-0.2-5-0.4c-1.7-0.2-3.6-0.3-5.8-0.5v-68.5 c4.1-0.4,7.6-0.7,10.7-0.9c3.1-0.2,6.4-0.2,9.9-0.2c7.2,0,13.5,0.9,18.8,2.7c5.3,1.8,9.7,4.2,13.2,7.3c3.5,3.1,6.1,6.8,7.8,11 C662.5,335.7,663.3,340.2,663.3,345.2z M646.1,345.2c0-6.3-1.9-11.3-5.8-14.9c-3.9-3.6-9.6-5.4-17.2-5.4c-1.4,0-2.5,0-3.4,0.1 c-0.9,0.1-2,0.2-3.2,0.3v41.1c0.8,0.1,1.4,0.1,1.9,0.2c0.5,0.1,1.1,0.1,1.7,0.1c0.6,0,1.2,0,1.8,0c0.6,0,1.4,0,2.3,0 c3.8,0,7.1-0.5,9.8-1.5c2.8-1,5-2.5,6.8-4.4c1.8-1.9,3.1-4.2,4-6.8C645.7,351.4,646.1,348.4,646.1,345.2z"></path> <path class="st1" d="M299,467.5v34.9c-4.6,3.3-9.4,5.8-14.6,7.4c-5.2,1.6-10.9,2.4-17,2.4c-7.3,0-13.9-1.1-19.8-3.4 c-5.9-2.3-10.9-5.4-15.1-9.5c-4.2-4.1-7.4-9-9.6-14.7c-2.2-5.7-3.4-12-3.4-18.9c0-6.9,1.1-13.3,3.3-19c2.2-5.7,5.3-10.6,9.3-14.7 c4-4.1,8.9-7.2,14.7-9.5c5.8-2.2,12.2-3.4,19.3-3.4c3.6,0,6.9,0.3,10,0.8c3.1,0.5,5.9,1.3,8.6,2.3c2.6,1,5.1,2.2,7.3,3.6 c2.2,1.4,4.3,3,6.3,4.8l-3.5,5.6c-0.6,0.8-1.3,1.4-2.1,1.6c-0.9,0.2-1.8,0-2.9-0.6c-1-0.6-2.2-1.3-3.5-2.2 c-1.3-0.8-2.9-1.7-4.8-2.4c-1.9-0.8-4.1-1.4-6.7-2c-2.6-0.5-5.6-0.8-9.1-0.8c-5.1,0-9.8,0.8-13.9,2.5c-4.1,1.7-7.7,4.1-10.6,7.2 c-2.9,3.1-5.2,6.9-6.7,11.3c-1.6,4.4-2.3,9.4-2.3,14.9c0,5.7,0.8,10.8,2.4,15.3c1.6,4.5,4,8.3,7,11.5c3,3.2,6.7,5.6,11,7.2 c4.3,1.7,9.2,2.5,14.5,2.5c4.2,0,8-0.5,11.3-1.4c3.3-1,6.5-2.3,9.6-4v-20h-14.2c-0.8,0-1.4-0.2-1.9-0.7c-0.5-0.5-0.7-1-0.7-1.7v-7 H299z"></path> <path class="st1" d="M324.1,426.8c0,1.1-0.2,2.1-0.7,3.1c-0.4,1-1,1.8-1.8,2.5c-0.7,0.7-1.6,1.3-2.6,1.7c-1,0.4-2,0.6-3.1,0.6 c-1.1,0-2.1-0.2-3.1-0.6c-1-0.4-1.8-1-2.5-1.7c-0.7-0.7-1.3-1.6-1.7-2.5c-0.4-1-0.6-2-0.6-3.1c0-1.1,0.2-2.1,0.6-3.1 c0.4-1,1-1.9,1.7-2.6c0.7-0.7,1.6-1.3,2.5-1.7c1-0.4,2-0.6,3.1-0.6c1.1,0,2.1,0.2,3.1,0.6c1,0.4,1.9,1,2.6,1.7 c0.7,0.7,1.3,1.6,1.8,2.6C323.9,424.6,324.1,425.7,324.1,426.8z M321.7,446.9v64.3h-11.3v-64.3H321.7z"></path> <path class="st1" d="M353.6,512.2c-5.1,0-9-1.4-11.7-4.3c-2.7-2.8-4.1-6.9-4.1-12.2v-39.4H330c-0.7,0-1.2-0.2-1.7-0.6 c-0.5-0.4-0.7-1-0.7-1.9v-4.5l10.5-1.3l2.6-19.9c0.1-0.6,0.4-1.2,0.9-1.6c0.4-0.4,1-0.6,1.7-0.6h5.7v22.1h18.6v8.2H349V495 c0,2.7,0.7,4.7,2,6c1.3,1.3,3,2,5.1,2c1.2,0,2.2-0.2,3.1-0.5c0.9-0.3,1.6-0.7,2.3-1c0.6-0.4,1.2-0.7,1.6-1 c0.4-0.3,0.8-0.5,1.2-0.5c0.6,0,1.1,0.4,1.6,1.1l3.3,5.4c-1.9,1.8-4.3,3.2-7,4.3C359.3,511.7,356.5,512.2,353.6,512.2z"></path> <path class="st1" d="M461.5,465.8c0,6.8-1.1,13.1-3.2,18.8c-2.2,5.7-5.2,10.6-9.1,14.7c-3.9,4.1-8.7,7.3-14.2,9.6 c-5.5,2.3-11.6,3.4-18.3,3.4c-6.7,0-12.8-1.1-18.3-3.4c-5.5-2.3-10.2-5.4-14.2-9.6c-3.9-4.1-7-9-9.1-14.7 c-2.2-5.7-3.2-11.9-3.2-18.8c0-6.8,1.1-13.1,3.2-18.8c2.2-5.7,5.2-10.6,9.1-14.7c3.9-4.1,8.7-7.3,14.2-9.6 c5.5-2.3,11.6-3.4,18.3-3.4c6.7,0,12.8,1.1,18.3,3.4c5.5,2.3,10.3,5.5,14.2,9.6c3.9,4.1,7,9,9.1,14.7 C460.4,452.7,461.5,459,461.5,465.8z M448.9,465.8c0-5.6-0.8-10.6-2.3-15c-1.5-4.4-3.7-8.2-6.5-11.3c-2.8-3.1-6.2-5.4-10.2-7.1 c-4-1.7-8.4-2.5-13.3-2.5c-4.9,0-9.3,0.8-13.3,2.5c-4,1.7-7.4,4-10.2,7.1c-2.8,3.1-5,6.8-6.5,11.3c-1.5,4.4-2.3,9.5-2.3,15 c0,5.6,0.8,10.6,2.3,15c1.5,4.4,3.7,8.2,6.5,11.2c2.8,3.1,6.2,5.4,10.2,7c4,1.6,8.4,2.4,13.3,2.4c4.9,0,9.4-0.8,13.3-2.4 c4-1.6,7.4-4,10.2-7c2.8-3.1,5-6.8,6.5-11.2C448.1,476.4,448.9,471.4,448.9,465.8z"></path> <path class="st1" d="M482.3,456.9c2.7-3.3,5.8-6,9.4-8.1c3.6-2,7.6-3,12.2-3c3.7,0,7.1,0.7,10.1,2.1c3,1.4,5.6,3.5,7.7,6.3 c2.1,2.8,3.7,6.2,4.9,10.3c1.1,4.1,1.7,8.8,1.7,14.2c0,4.7-0.6,9.2-1.9,13.2c-1.3,4.1-3.1,7.6-5.5,10.6c-2.4,3-5.3,5.3-8.8,7 c-3.4,1.7-7.3,2.6-11.6,2.6c-3.9,0-7.3-0.7-10.1-2c-2.8-1.3-5.3-3.2-7.5-5.6V533h-11.4v-86.1h6.8c1.6,0,2.6,0.8,3,2.3L482.3,456.9 z M482.9,495.7c2.1,2.8,4.3,4.8,6.8,5.9c2.5,1.1,5.2,1.7,8.3,1.7c6,0,10.6-2.1,13.8-6.4c3.2-4.3,4.8-10.4,4.8-18.3 c0-4.2-0.4-7.8-1.1-10.8c-0.7-3-1.8-5.5-3.2-7.4c-1.4-1.9-3.1-3.3-5.1-4.2c-2-0.9-4.3-1.3-6.9-1.3c-3.7,0-6.9,0.8-9.7,2.5 c-2.8,1.7-5.3,4.1-7.6,7.2V495.7z"></path> <path class="st1" d="M573.8,457.5c-0.5,0.9-1.3,1.4-2.3,1.4c-0.6,0-1.4-0.2-2.2-0.7c-0.8-0.5-1.8-1-3-1.6 c-1.2-0.6-2.5-1.1-4.2-1.6c-1.6-0.5-3.5-0.7-5.7-0.7c-1.9,0-3.6,0.2-5.1,0.7c-1.5,0.5-2.8,1.2-3.9,2c-1.1,0.8-1.9,1.8-2.5,3 c-0.6,1.1-0.9,2.3-0.9,3.6c0,1.7,0.5,3,1.4,4.1c1,1.1,2.2,2.1,3.8,2.9c1.6,0.8,3.3,1.5,5.3,2.1c2,0.6,4,1.3,6.1,2 c2.1,0.7,4.1,1.5,6.1,2.3c2,0.8,3.8,1.9,5.3,3.2c1.6,1.3,2.8,2.8,3.8,4.7c1,1.8,1.4,4.1,1.4,6.6c0,3-0.5,5.7-1.6,8.2 c-1.1,2.5-2.6,4.7-4.7,6.5c-2.1,1.8-4.6,3.3-7.6,4.3c-3,1.1-6.5,1.6-10.4,1.6c-4.5,0-8.5-0.7-12.2-2.2c-3.6-1.5-6.7-3.3-9.3-5.6 l2.7-4.3c0.3-0.5,0.7-1,1.2-1.3c0.5-0.3,1.1-0.4,1.8-0.4c0.8,0,1.6,0.3,2.4,0.9c0.8,0.6,1.9,1.2,3.1,2c1.2,0.7,2.7,1.4,4.4,2 c1.7,0.6,3.9,0.9,6.5,0.9c2.2,0,4.1-0.3,5.8-0.9c1.7-0.6,3-1.3,4.1-2.3c1.1-1,1.9-2.1,2.4-3.4c0.5-1.3,0.8-2.6,0.8-4.1 c0-1.8-0.5-3.2-1.4-4.4c-1-1.2-2.2-2.2-3.8-3c-1.6-0.8-3.4-1.5-5.4-2.2c-2-0.6-4.1-1.3-6.2-1.9c-2.1-0.7-4.1-1.4-6.2-2.3 c-2-0.9-3.8-2-5.4-3.3c-1.6-1.3-2.8-2.9-3.8-4.9c-1-1.9-1.4-4.3-1.4-7c0-2.5,0.5-4.8,1.5-7.1c1-2.3,2.5-4.3,4.4-6 c1.9-1.7,4.3-3.1,7.2-4.1c2.8-1,6.1-1.5,9.7-1.5c4.2,0,8,0.7,11.4,2c3.4,1.3,6.3,3.2,8.7,5.5L573.8,457.5z"></path> <path class="st11" d="M161.7,625.3l-5.2-12.6h-24.1l-5.2,12.6h-16.5l32.8-70.3h2.2l32.8,70.3H161.7z M144.5,583.6l-6.9,16.7h13.8 L144.5,583.6z"></path> <path class="st11" d="M235.2,604.8c0,2.8-0.5,5.5-1.5,8.1c-1,2.6-2.6,4.9-4.6,6.9c-2.1,2-4.6,3.6-7.7,4.8 c-3.1,1.2-6.8,1.8-10.9,1.8c-2,0-4-0.2-6.1-0.6c-2.1-0.4-4.2-0.9-6.3-1.5c-2.1-0.6-4-1.4-5.9-2.2c-1.9-0.9-3.6-1.8-5.1-2.8 l4.5-14.6c2.9,2,6,3.7,9.4,4.9c3.4,1.2,6.8,1.9,10.1,1.9c2.9,0,4.9-0.6,6.1-1.8c1.2-1.2,1.8-2.6,1.8-4.3c0-0.9-0.1-1.7-0.4-2.5 c-0.3-0.8-0.9-1.6-1.8-2.4c-0.9-0.8-2.2-1.7-3.8-2.5c-1.6-0.9-3.8-1.8-6.4-2.9c-3-1.3-5.6-2.6-7.7-4.1c-2.1-1.5-3.8-3.1-5.1-4.8 c-1.3-1.7-2.2-3.5-2.8-5.5c-0.6-1.9-0.9-3.9-0.9-6c0-2.5,0.5-5,1.6-7.4c1-2.4,2.6-4.5,4.6-6.4c2-1.9,4.6-3.4,7.7-4.5 c3.1-1.1,6.6-1.7,10.7-1.7c1.9,0,3.8,0.2,5.7,0.5c1.9,0.3,3.7,0.7,5.4,1.2c1.7,0.5,3.3,1.1,4.8,1.7c1.5,0.6,2.7,1.3,3.7,2 l-4.1,14.5c-1-0.7-2.2-1.4-3.4-2c-1.3-0.7-2.6-1.3-3.9-1.8c-1.4-0.5-2.7-1-4.1-1.3c-1.4-0.3-2.7-0.5-3.9-0.5c-3,0-5.1,0.6-6.4,1.7 c-1.3,1.1-1.9,2.4-1.9,3.9c0,1.1,0.2,2.1,0.7,2.9c0.4,0.8,1.2,1.6,2.2,2.3c1,0.7,2.3,1.4,3.9,2.1c1.6,0.7,3.4,1.5,5.6,2.5 c3.2,1.4,5.9,2.8,8.1,4.3c2.2,1.5,3.9,3.1,5.2,4.8c1.3,1.7,2.2,3.5,2.8,5.4C234.9,600.5,235.2,602.6,235.2,604.8z"></path> <path class="st11" d="M294.6,604.8c0,2.8-0.5,5.5-1.5,8.1c-1,2.6-2.6,4.9-4.6,6.9c-2.1,2-4.6,3.6-7.7,4.8 c-3.1,1.2-6.8,1.8-10.9,1.8c-2,0-4-0.2-6.1-0.6c-2.1-0.4-4.2-0.9-6.3-1.5c-2.1-0.6-4-1.4-5.9-2.2c-1.9-0.9-3.6-1.8-5.1-2.8 l4.5-14.6c2.9,2,6,3.7,9.4,4.9c3.4,1.2,6.8,1.9,10.1,1.9c2.9,0,4.9-0.6,6.1-1.8c1.2-1.2,1.8-2.6,1.8-4.3c0-0.9-0.1-1.7-0.4-2.5 c-0.3-0.8-0.9-1.6-1.8-2.4c-0.9-0.8-2.2-1.7-3.8-2.5c-1.6-0.9-3.8-1.8-6.4-2.9c-3-1.3-5.6-2.6-7.7-4.1c-2.1-1.5-3.8-3.1-5.1-4.8 c-1.3-1.7-2.2-3.5-2.8-5.5c-0.6-1.9-0.9-3.9-0.9-6c0-2.5,0.5-5,1.6-7.4c1-2.4,2.6-4.5,4.6-6.4c2-1.9,4.6-3.4,7.7-4.5 c3.1-1.1,6.6-1.7,10.7-1.7c1.9,0,3.8,0.2,5.7,0.5c1.9,0.3,3.7,0.7,5.4,1.2c1.7,0.5,3.3,1.1,4.8,1.7c1.5,0.6,2.7,1.3,3.7,2 l-4.1,14.5c-1-0.7-2.2-1.4-3.4-2c-1.3-0.7-2.6-1.3-3.9-1.8c-1.4-0.5-2.7-1-4.1-1.3c-1.4-0.3-2.7-0.5-3.9-0.5c-3,0-5.1,0.6-6.4,1.7 c-1.3,1.1-1.9,2.4-1.9,3.9c0,1.1,0.2,2.1,0.7,2.9c0.4,0.8,1.2,1.6,2.2,2.3c1,0.7,2.3,1.4,3.9,2.1c1.6,0.7,3.4,1.5,5.6,2.5 c3.2,1.4,5.9,2.8,8.1,4.3c2.2,1.5,3.9,3.1,5.2,4.8c1.3,1.7,2.2,3.5,2.8,5.4C294.4,600.5,294.6,602.6,294.6,604.8z"></path> <path class="st11" d="M378.5,590.5c0,5.1-0.9,9.9-2.6,14.3c-1.7,4.4-4.2,8.2-7.4,11.4c-3.2,3.2-7,5.7-11.4,7.6 c-4.4,1.8-9.3,2.8-14.7,2.8c-5.4,0-10.3-0.9-14.6-2.8c-4.4-1.8-8.1-4.4-11.2-7.6c-3.1-3.2-5.4-7-7.1-11.4 c-1.6-4.4-2.5-9.1-2.5-14.3s0.9-9.9,2.6-14.3c1.7-4.4,4.2-8.2,7.3-11.4c3.1-3.2,6.9-5.7,11.4-7.6c4.4-1.8,9.3-2.8,14.7-2.8 c5.4,0,10.3,0.9,14.6,2.8c4.3,1.8,8,4.4,11.1,7.6c3.1,3.2,5.5,7,7.1,11.4C377.6,580.6,378.5,585.4,378.5,590.5z M361.2,590.5 c0-3.2-0.4-6.1-1.3-8.7c-0.9-2.6-2.1-4.9-3.8-6.8c-1.6-1.9-3.6-3.4-5.8-4.5c-2.3-1.1-4.8-1.6-7.6-1.6c-2.7,0-5.2,0.5-7.5,1.6 c-2.3,1.1-4.2,2.6-5.8,4.5c-1.6,1.9-2.9,4.2-3.8,6.8c-0.9,2.6-1.3,5.5-1.3,8.7c0,3.1,0.4,6,1.3,8.6c0.9,2.6,2.1,4.9,3.8,6.8 c1.6,1.9,3.6,3.4,5.8,4.5c2.3,1.1,4.8,1.6,7.5,1.6c2.8,0,5.3-0.5,7.6-1.6c2.2-1.1,4.2-2.6,5.8-4.5c1.6-1.9,2.9-4.2,3.8-6.8 C360.7,596.5,361.2,593.6,361.2,590.5z"></path> <path class="st11" d="M452.7,620c-3,2-6.5,3.6-10.5,4.8c-4,1.1-7.9,1.7-11.9,1.7c-5.7,0-10.9-0.9-15.5-2.7 c-4.7-1.8-8.7-4.3-12-7.5c-3.4-3.2-6-7-7.8-11.4c-1.8-4.4-2.8-9.2-2.8-14.3c0-5.2,0.9-10,2.8-14.4c1.8-4.4,4.4-8.2,7.8-11.4 c3.4-3.2,7.4-5.7,12-7.5c4.7-1.8,9.8-2.7,15.5-2.7c4.1,0,7.9,0.6,11.6,1.7c3.6,1.1,7.1,2.6,10.2,4.4l-4.9,13.7 c-2.6-1.5-5.3-2.6-8.1-3.4c-2.8-0.8-5.7-1.2-8.5-1.2c-3.2,0-6.2,0.5-8.8,1.4c-2.6,1-4.8,2.3-6.7,4.1c-1.8,1.8-3.2,4-4.2,6.6 c-1,2.6-1.5,5.5-1.5,8.7s0.5,6.1,1.5,8.7c1,2.6,2.4,4.8,4.2,6.6c1.8,1.8,4,3.2,6.7,4.2c2.6,1,5.6,1.5,8.8,1.5 c2.9,0,5.8-0.4,8.8-1.3c3-0.9,5.9-2.2,8.6-3.8L452.7,620z"></path> <path class="st11" d="M467.7,625.3v-69.7h16.2v69.7H467.7z"></path> <path class="st11" d="M547,625.3l-5.2-12.6h-24.1l-5.2,12.6h-16.5l32.8-70.3h2.2l32.8,70.3H547z M529.8,583.6l-6.9,16.7h13.8 L529.8,583.6z"></path> <path class="st11" d="M599,570.5v54.9h-16.2v-54.9h-20.9v-14.8h58v14.8H599z"></path> <path class="st11" d="M633.4,625.3v-69.7h44.1v14.8h-28v12.5h25.5V597h-25.5v13.6h28v14.7H633.4z"></path> </g> </g> <g> <g> <defs> <rect id="SVGID_00000152247130736416634950000015586215790623025813_" width="798.6" height="227.9"></rect> </defs> <clipPath id="SVGID_00000171714956930083854970000017053200861809787312_"> <use xlink:href="#SVGID_00000152247130736416634950000015586215790623025813_" style="overflow:visible;"></use> </clipPath> <g style="clip-path:url(#SVGID_00000171714956930083854970000017053200861809787312_);"> <path class="st1" d="M299.6,25C287.7,25,278,15.3,278,3.4V143c0,0,0,0,0,0v193.8c9.6-1.8,19.4-3.4,29.2-4.7 c4.8-0.6,9.4-1.1,14.1-1.5V143c0-0.4,0-0.7,0-1.1c0,0.4,0,0.7,0,1.1V3.4C321.2,15.3,311.6,25,299.6,25z M278,143 c0-7.1,3.4-13.3,8.7-17.3C281.4,129.6,278,135.9,278,143z M287.5,125.1C287.5,125.1,287.4,125.2,287.5,125.1 C287.4,125.2,287.5,125.1,287.5,125.1z"></path> <path class="st1" d="M525,121.4c0-7.1-3.4-13.4-8.7-17.3C521.6,108,525,114.3,525,121.4V-70c-7.2-2-14.4-3.9-21.6-5.6 c-1.1-0.3-2.3-0.5-3.3-0.7c-2.6-0.6-5.1-1.2-7.7-1.7c-1.5-0.3-2.9-0.6-4.4-0.8c-2-0.4-4-0.8-6-1.2v198.8 c-0.1,0.9-0.2,1.7-0.2,2.6v4.5c0,11.9,9.7,21.6,21.6,21.6c0,0,0,0,0,0c11.5,0,20.9-9.1,21.5-20.5c-0.6,11.4-10,20.5-21.6,20.5 c-11.9,0-21.6-9.7-21.6-21.6l0.1,153.7l43.2,43.2L525,125.9V121.4z"></path> <path class="st1" d="M551.7,173.2c0,11.9,9.6,21.5,21.5,21.5c0,0,0.1,0,0.1,0c11.1,0,20.2-8.3,21.4-19.1 c-1.2,10.8-10.4,19.1-21.5,19.1C561.3,194.8,551.7,185.1,551.7,173.2v76.2l43.2,23.6v-99.7c0,0,0,0,0,0c0,0,0,0,0,0V-69.5 c-14.1-6.6-28.5-12.4-43.2-17.6V173.2z M594.9,174.3c0-0.2,0-0.3,0-0.5C594.9,174,594.9,174.1,594.9,174.3z M594.8,175.4 c0-0.2,0-0.4,0-0.6C594.8,175,594.8,175.2,594.8,175.4z"></path> <path class="st1" d="M795.4-29.6c-1.2-1.9-2.4-3.8-3.6-5.7l-2-3.3l-4-6.1l-1.7-2.6c-1.9-2.9-3.9-5.7-5.9-8.5l-0.8-1.1 c-1.7-2.4-3.3-4.9-5.3-7.2l-2.1-2.8l-4.2-5.5l-2.4-3l-4.3-5.3l-2.4-2.9l-1.2-1.4v230.6c0,0.5-0.1,1.1-0.1,1.6v1.5 c0,11.9,9.7,21.6,21.6,21.6h0c11.9,0,21.6-9.7,21.6-21.6V147V-24.3l-1.2-2L795.4-29.6z"></path> <path class="st1" d="M777,170.1c-11.9,0-21.6-9.7-21.6-21.6v366.9c9,10.9,17.6,22.2,25.6,33.9l3-4.2l1.7-2.6c1.4-2,2.7-4,4-6.1 l2-3.3c1.2-1.9,2.4-3.8,3.6-5.8l2-3.3c0.4-0.7,0.8-1.4,1.2-2V148.5C798.6,160.4,789,170.1,777,170.1z"></path> <path class="st1" d="M825.4,285.3v372.2c25.6-58.7,38.7-122,38.7-186C864.1,407.4,851,344,825.4,285.3z"></path> <path class="st1" d="M346.4,345c14.1-0.7,28.2-1.2,42.3-2c0.3,0,0.6-0.1,1-0.1V-49.7c-14.6,0.2-29,1.2-43.2,2.7V345z"></path> <path class="st1" d="M312.9-58.2c-1.7,0.3-4,0.8-6,1.2c-2,0.4-3.3,0.7-5.2,1l-5.9,1.3c-1.7,0.4-3.3,0.8-5.2,1.2 c-1.8,0.4-4,1-5.9,1.5c-2,0.5-3.3,0.8-5,1.3l-1.6,0.4v50.1C278.1,0.3,278,1,278,1.7v1.5c0,11.9,9.6,21.5,21.5,21.5 c0,0,0.1,0,0.1,0c11.9,0,21.6-9.6,21.6-21.5V1.7v-61.4l-3.1,0.5C316.4-58.8,314.6-58.5,312.9-58.2z"></path> <path class="st1" d="M252.8,170.9v1.1c-0.3,2.6-1.2,5.2-2.4,7.5c-0.7,1.2-1.5,2.3-2.3,3.3c-0.5,0.6-1,1.2-1.6,1.7 c-5.2,5.1-12.6,7.2-19.6,5.6c7,1.6,14.4-0.6,19.5-5.6c0.5-0.5,1.1-1.1,1.6-1.7c0.9-1,1.7-2.1,2.3-3.3c1.3-2.3,2.1-4.9,2.4-7.5 v-1.1v-1.6c0-11.8-9.6-21.5-21.4-21.5c-11.9,0-21.5,9.6-21.5,21.5c0,0,0,0,0-0.1v2.1c-0.1-0.7-0.1-1.4-0.1-2.1v-1.1 c0,0.4,0,0.8,0,1.2c0,0.7,0.1,1.4,0.1,2.1v125.8c1.7-0.5,3.3-1,5-1.5c12.6-4,25.3-7.6,38.1-10.7l0-115.8V170.9z"></path> <path class="st1" d="M231.2,147.6c11.9,0,21.6,9.7,21.6,21.6V-100c-0.7,0.2-1.5,0.5-2.2,0.7l-5.6,1.9l-5.3,1.9 c-1.9,0.7-3.7,1.4-5.6,2.1c-1.9,0.7-3.3,1.3-5.2,2l-5.5,2.2l-5.1,2.1l-5.4,2.3c-1.1,0.5-2.2,1-3.3,1.4v251.6 C210.2,156.7,219.6,147.6,231.2,147.6z"></path> <path class="st1" d="M171.7-54.7c-1.4,0.8-2.8,1.6-4.2,2.4c-2.2,1.2-4.4,2.5-6.6,3.8c-1.3,0.7-2.6,1.5-3.9,2.3 c-2.4,1.5-4.9,3-7.3,4.5l-2.9,1.8c-3.3,2.1-6.6,4.3-10,6.6v369.5c9.8-4.6,19.8-8.9,29.9-13c4.3-1.8,8.7-3.5,13.2-5.2v-377l-2,1 C175.9-56.9,173.8-55.7,171.7-54.7z"></path> <path class="st1" d="M111.4-90.7l-0.6,0.5c-3.3,2.7-6.8,5.4-10.2,8.2l-1.9,1.6c-2.7,2.3-5.4,4.6-8.1,6.9l-3.1,2.8 c-2.3,2.1-4.7,4.2-6.9,6.3l-2.9,2.7c-2.9,2.8-5.8,5.5-8.6,8.3l-0.7,0.7V92.9c0-11.9,9.6-21.6,21.5-21.6c0,0,0,0,0.1,0 c7.5,0,14,3.8,17.9,9.5c-3.9-5.7-10.4-9.4-17.9-9.4c-11.9,0-21.6,9.7-21.6,21.6v204.6c14.1-9,28.5-17.3,43.2-25V93.1 c0-0.7,0-1.4-0.1-2.1V-90.7z"></path> <path class="st1" d="M39.5-64l-1.8,2.2c-2.2,2.6-4.3,5.3-6.4,7.9l-1.5,1.9c-1.6,2.1-3.3,4.2-4.8,6.3l-2.2,3l-4,5.4 c-0.8,1.1-1.5,2.1-2.3,3.3l-3.9,5.6l-2,2.9c-1.7,2.5-3.3,5.1-5,7.6l-0.7,1c-1.7,2.6-3.3,5.3-5,8v155.4C0,134.6,9.7,125,21.6,125 c11.9,0,21.6,9.7,21.6,21.6V-68.2L39.5-64z"></path> <path class="st1" d="M43.2,146.6L43.2,146.6C43.2,146.6,43.2,146.6,43.2,146.6c0-11.9-9.7-21.6-21.6-21.6 C9.7,125,0,134.7,0,146.6c0,0,0,0,0,0v110c0.1-11.9,9.7-21.5,21.6-21.5c11.9,0,21.6,9.6,21.6,21.5V146.6 C43.2,146.6,43.2,146.6,43.2,146.6C43.2,146.6,43.2,146.6,43.2,146.6z"></path> <path class="st1" d="M-52.7,591.7l0.5-0.6c1.5-1.5,3-3.1,4.6-4.5c5.5-4.9,10.9-10,16.4-15V288.8 C-71.9,384.6-79.4,491.2-52.7,591.7z"></path> <path class="st1" d="M454.3-12.4c-2.6-0.3-5.2-0.6-7.8-0.9c-1.4,0-2.8-0.3-4.3-0.4c-2.4-0.2-4.7-0.4-7.1-0.6 c-1.5,0-3.1-0.2-4.6-0.3c-2.2,0-4.5-0.3-6.6-0.4c-1.6,0-3.3-0.2-4.9-0.2s-2.6,0-3.9,0v73.1c0.1,11.8,9.6,21.3,21.3,21.4 c11.8,0,21.4-9.6,21.5-21.4c0,11.9-9.7,21.6-21.6,21.6c-11.9,0-21.6-9.7-21.6-21.6v1.5c0,0,0,0,0,0v297.9l43.2,43.2V59.2 c0,11.9-9.7,21.6-21.6,21.6c-11.1,0-20.3-8.4-21.5-19.2c1.2,10.8,10.4,19.2,21.5,19.1c11.9,0,21.5-9.6,21.5-21.5v-1.3 c0,0,0,0,0,0V-12c-0.1,0-0.3,0-0.4,0C456.5-12.2,455.3-12.3,454.3-12.4z M414.9,60.7c0,0.3,0,0.6,0.1,0.8 C414.9,61.2,414.9,61,414.9,60.7z M414.8,59.8c0,0.2,0,0.4,0,0.6C414.9,60.2,414.9,60,414.8,59.8z"></path> <path class="st1" d="M212.3,307.7l-1.2-2.6C211.5,306,211.8,306.9,212.3,307.7z"></path> <path class="st1" d="M723.1-65.2l-2.7-2.6c-3.2-3-6.3-6.1-9.6-9l-1.4-1.3c-2.8-2.5-5.7-5-8.5-7.5l-3.1-2.7 c-2.4-2-4.9-4.1-7.3-6.1l-2-1.6V386c0,11.9,9.7,21.6,21.6,21.6c0,0,0.1,0,0.1,0c11.8-0.1,21.4-9.7,21.4-21.6V-56.8l-1.6-1.6 C727.7-60.7,725.4-63,723.1-65.2z"></path> <path class="st1" d="M525,121.4C525,121.4,525,121.4,525,121.4L525,121.4C525,121.4,525,121.4,525,121.4z"></path> <path class="st1" d="M655.1-74.2l-4.4-2.9c-1.8-1.2-3.6-2.3-5.4-3.3c-1.8-1.1-3-1.9-4.5-2.8c-1.5-0.9-3.7-2.2-5.5-3.3l-4.4-2.6 c-1.9-1.1-3.9-2.2-5.8-3.3c-1.2-0.7-2.4-1.4-3.6-2c-1.8,3.2-2.8,6.9-2.8,10.6l-0.1,40c0,0.4,0,0.7,0,1.1c0-0.4,0-0.7,0-1.1V200 l0,0v127.8c14.4,14.4,28.8,28.8,43.2,43.2V200c0-0.2,0-0.4,0-0.5c0,0.2,0,0.3,0,0.5V-43.9c0,0.4,0,0.7,0,1.1c0-0.4,0-0.7,0-1.1 v-25.9l-1.6-1.1L655.1-74.2z M640.4,178.4c-0.1,0-0.1,0-0.2,0c-11.5,0-20.9,9.1-21.5,20.4c0.6-11.4,10-20.5,21.6-20.5 c10.8,0,19.8,8,21.4,18.4C660.1,186.4,651.2,178.4,640.4,178.4z M661.8,198.3c0,0.2,0,0.4,0,0.6 C661.9,198.7,661.9,198.5,661.8,198.3z M661.7,197c0,0.3,0.1,0.5,0.1,0.8C661.8,197.5,661.7,197.2,661.7,197z"></path> </g> <g style="clip-path:url(#SVGID_00000171714956930083854970000017053200861809787312_);"> <g class="st2"> <path class="st3" d="M299.7,121.4c11.9,0,21.6,9.7,21.6,21.6l0,0V3.4c0,11.9-9.7,21.6-21.6,21.6C287.7,25,278,15.3,278,3.4V143 c0-11.9,9.6-21.6,21.5-21.6C299.6,121.4,299.6,121.4,299.7,121.4z"></path> </g> <g class="st4"> <path class="st3" d="M525,125.9c0,11.9-9.7,21.6-21.6,21.6c-11.9,0-21.6-9.7-21.6-21.6l0,0l0.1,153.7l43.2,43.2L525,125.9z"></path> </g> <g class="st2"> <path class="st3" d="M503.4,147.4c11.9,0,21.5-9.7,21.5-21.6v-4.5c0-11.9-9.7-21.6-21.6-21.6c-11.9,0-21.6,9.7-21.6,21.6v4.5 C481.8,137.8,491.5,147.4,503.4,147.4C503.4,147.4,503.4,147.4,503.4,147.4z"></path> </g> <g class="st4"> <path class="st3" d="M503.4,147.4c11.9,0,21.5-9.7,21.5-21.6v-4.5c0-11.9-9.7-21.6-21.6-21.6c-11.9,0-21.6,9.7-21.6,21.6v4.5 C481.8,137.8,491.5,147.4,503.4,147.4C503.4,147.4,503.4,147.4,503.4,147.4z"></path> </g> <g class="st5"> <path class="st3" d="M573.3,194.7c11.9,0,21.6-9.6,21.6-21.5c0,0,0,0,0,0V-69.5c-14.1-6.6-28.5-12.4-43.2-17.6v260.2 c0,11.9,9.6,21.5,21.5,21.5C573.2,194.7,573.3,194.7,573.3,194.7z"></path> </g> <g class="st6"> <path class="st3" d="M594.9,173.2c0,11.9-9.7,21.6-21.6,21.6s-21.6-9.7-21.6-21.6v76.2l43.2,23.6V173.2z"></path> </g> <g class="st6"> <path class="st3" d="M777.1,125.4c11.9,0,21.6,9.7,21.6,21.6V-24.3l-1.2-2l-2-3.3c-1.2-1.9-2.4-3.8-3.6-5.7l-2-3.3l-4-6.1 l-1.7-2.6c-1.9-2.9-3.9-5.7-5.9-8.5l-0.8-1.1c-1.7-2.4-3.3-4.9-5.3-7.2l-2.1-2.8l-4.2-5.5l-2.4-3l-4.3-5.3l-2.4-2.9l-1.2-1.4 v232.1C755.6,135,765.2,125.4,777.1,125.4z"></path> </g> <g class="st2"> <path class="st3" d="M784.1,545.1l1.7-2.6c1.4-2,2.7-4,4-6.1l2-3.3c1.2-1.9,2.4-3.8,3.6-5.8l2-3.3c0.4-0.7,0.8-1.4,1.2-2V148.5 c0,11.9-9.7,21.6-21.6,21.6c-11.9,0-21.6-9.7-21.6-21.6v366.9c9,10.9,17.6,22.2,25.6,33.9L784.1,545.1z"></path> </g> <g class="st4"> <path class="st3" d="M777.1,170.1c11.9,0,21.6-9.7,21.6-21.6V147c0-11.9-9.7-21.6-21.6-21.6c-11.9,0-21.6,9.7-21.6,21.6v1.5 C755.4,160.4,765.1,170.1,777.1,170.1L777.1,170.1z"></path> </g> <path class="st3" d="M864.1,471.5c0.1-64.1-13.1-127.4-38.7-186.2v372.2C851,598.8,864.1,535.5,864.1,471.5z"></path> <g class="st6"> <path class="st3" d="M458.1,59.2c0,11.9-9.7,21.6-21.6,21.6s-21.6-9.7-21.6-21.6l0,0v298.1l43.2,43.2V59.2z"></path> </g> <path class="st7" d="M436.5,80.7c11.9,0,21.5-9.6,21.5-21.5v-1.3c0,11.9-9.7,21.6-21.6,21.6c-11.9,0-21.6-9.7-21.6-21.6v1.5 C414.9,71.2,424.6,80.8,436.5,80.7z"></path> <g class="st5"> <path class="st3" d="M389.7,342.9V-49.7c-14.6,0.2-29,1.2-43.2,2.7v392c14.1-0.7,28.2-1.2,42.3-2 C389,343,389.3,342.9,389.7,342.9z"></path> </g> <g class="st4"> <path class="st3" d="M321.2,330.6V143c0-11.9-9.7-21.6-21.6-21.6S278,131.1,278,143v193.8c9.6-1.8,19.4-3.4,29.2-4.7 C311.9,331.5,316.6,331,321.2,330.6z"></path> </g> <g class="st2"> <path class="st3" d="M299.7-19.9c11.9,0,21.6,9.7,21.6,21.6v-61.4l-3.1,0.5c-1.7,0.3-3.5,0.6-5.2,0.9s-4,0.8-6,1.2 c-2,0.4-3.3,0.7-5.2,1l-5.9,1.3c-1.7,0.4-3.3,0.8-5.2,1.2s-4,1-5.9,1.5c-2,0.5-3.3,0.8-5,1.3l-1.6,0.4V1.7 C278.1-10.2,287.8-19.9,299.7-19.9z"></path> </g> <g class="st5"> <path class="st3" d="M299.7,24.7c11.9,0,21.6-9.6,21.6-21.5V1.7c0-11.9-9.7-21.6-21.6-21.6c-11.9,0-21.6,9.7-21.6,21.6v1.5 C278,15.1,287.7,24.7,299.7,24.7C299.6,24.7,299.6,24.7,299.7,24.7z"></path> </g> <g class="st6"> <path class="st3" d="M252.8,169.2v1.6v1.1c-0.3,2.6-1.2,5.2-2.4,7.5c-0.7,1.2-1.5,2.3-2.3,3.3c-0.5,0.6-1,1.2-1.6,1.7 c-5.2,5.1-12.6,7.2-19.6,5.6c-3.3-0.6-6.3-2-8.9-4.1c-1.2-1-2.3-2.1-3.3-3.3c-0.9-1-1.7-2.1-2.3-3.3c-0.5-0.8-0.8-1.7-1.2-2.6 c-1-2.4-1.4-5-1.4-7.6v128.1c1.7-0.5,3.3-1,5-1.5c12.6-4,25.3-7.6,38.1-10.7L252.8,169.2z"></path> </g> <g class="st2"> <path class="st3" d="M226.9,190.1c-3.3-0.6-6.3-2-8.9-4.1C220.6,188.1,223.6,189.5,226.9,190.1z"></path> </g> <g class="st2"> <path class="st3" d="M209.6,169.2c0-11.9,9.7-21.6,21.6-21.6c11.9,0,21.6,9.7,21.6,21.6V-100c-0.7,0.2-1.5,0.5-2.2,0.7l-5.6,1.9 l-5.3,1.9c-1.9,0.7-3.7,1.4-5.6,2.1s-3.3,1.3-5.2,2l-5.5,2.2l-5.1,2.1l-5.4,2.3c-1.1,0.5-2.2,1-3.3,1.4L209.6,169.2 c0,2.5,0.5,5.1,1.5,7.5C210.1,174.4,209.6,171.8,209.6,169.2z"></path> </g> <g class="st6"> <path class="st3" d="M180,317.9v-377l-2,1c-2.1,1.1-4.2,2.3-6.3,3.3c-1.4,0.8-2.8,1.6-4.2,2.4c-2.2,1.2-4.4,2.5-6.6,3.8 c-1.3,0.7-2.6,1.5-3.9,2.3c-2.4,1.5-4.9,3-7.3,4.5l-2.9,1.8c-3.3,2.1-6.6,4.3-10,6.6l0,0v369.5c9.8-4.6,19.8-8.9,29.9-13 C171.1,321.3,175.5,319.6,180,317.9z"></path> </g> <g class="st2"> <path class="st3" d="M89.9,71.3c11.9,0,21.5,9.6,21.5,21.5c0,0,0,0,0,0V-90.7l-0.6,0.5c-3.3,2.7-6.8,5.4-10.2,8.2l-1.9,1.6 c-2.7,2.3-5.4,4.6-8.1,6.9l-3.1,2.8c-2.3,2.1-4.7,4.2-6.9,6.3l-2.9,2.7c-2.9,2.8-5.8,5.5-8.6,8.3l-0.7,0.7V92.9 C68.3,81,77.9,71.4,89.9,71.3C89.9,71.3,89.9,71.3,89.9,71.3z"></path> </g> <g class="st2"> <path class="st3" d="M111.5,272.6V93.1c0-11.9-9.7-21.6-21.6-21.6s-21.6,9.7-21.6,21.6v204.6C82.4,288.6,96.8,280.3,111.5,272.6 z"></path> </g> <g class="st4"> <path class="st3" d="M111.5,272.6V93.1c0-11.9-9.7-21.6-21.6-21.6s-21.6,9.7-21.6,21.6v204.6C82.4,288.6,96.8,280.3,111.5,272.6 z"></path> </g> <g class="st2"> <path class="st3" d="M21.6,235.1c11.9,0,21.6,9.6,21.6,21.5V-68.2L39.5-64l-1.8,2.2c-2.2,2.6-4.3,5.3-6.4,7.9l-1.5,1.9 c-1.6,2.1-3.3,4.2-4.8,6.3l-2.2,3l-4,5.4c-0.8,1.1-1.5,2.1-2.3,3.3l-3.9,5.6l-2,2.9c-1.7,2.5-3.3,5.1-5,7.6l-0.7,1 c-1.7,2.6-3.3,5.3-5,8v155.4C0,134.6,9.7,125,21.6,125c11.9,0,21.6,9.7,21.6,21.6c0,11.9-9.7,21.6-21.6,21.6l0,0 C9.7,168.1,0,158.5,0,146.5v110C0.1,244.7,9.7,235.1,21.6,235.1z"></path> </g> <g class="st2"> <path class="st3" d="M21.6,168.2c11.9,0,21.6-9.7,21.6-21.6c0-11.9-9.7-21.6-21.6-21.6C9.7,125,0,134.7,0,146.6v0l0,0 C0,158.5,9.7,168.2,21.6,168.2z"></path> </g> <g class="st4"> <path class="st3" d="M21.6,168.2c11.9,0,21.6-9.7,21.6-21.6c0-11.9-9.7-21.6-21.6-21.6C9.7,125,0,134.7,0,146.6v0l0,0 C0,158.5,9.7,168.2,21.6,168.2z"></path> </g> <path class="st3" d="M-31.2,571.6V288.8c-40.6,95.8-48.2,202.4-21.5,303l0.5-0.6c1.5-1.5,3-3.1,4.6-4.5 C-42.1,581.7-36.7,576.7-31.2,571.6z"></path> <path class="st7" d="M436.5,79.2c11.8,0,21.5-9.6,21.5-21.4V-12c-0.1,0-0.3,0-0.4,0c-1.1-0.2-2.3-0.3-3.3-0.4 c-2.6-0.3-5.2-0.6-7.8-0.9c-1.4,0-2.8-0.3-4.3-0.4c-2.4-0.2-4.7-0.4-7.1-0.6c-1.5,0-3.1-0.2-4.6-0.3c-2.2,0-4.5-0.3-6.6-0.4 c-1.6,0-3.3-0.2-4.9-0.2c-1.6-0.1-2.6,0-3.9,0v73.1C415.3,69.6,424.8,79.1,436.5,79.2z"></path> <g class="st4"> <path class="st3" d="M436.5,79.2c11.8,0,21.5-9.6,21.5-21.4V-12c-0.1,0-0.3,0-0.4,0c-1.1-0.2-2.3-0.3-3.3-0.4 c-2.6-0.3-5.2-0.6-7.8-0.9c-1.4,0-2.8-0.3-4.3-0.4c-2.4-0.2-4.7-0.4-7.1-0.6c-1.5,0-3.1-0.2-4.6-0.3c-2.2,0-4.5-0.3-6.6-0.4 c-1.6,0-3.3-0.2-4.9-0.2c-1.6-0.1-2.6,0-3.9,0v73.1C415.3,69.6,424.8,79.1,436.5,79.2z"></path> </g> <g class="st6"> <path class="st3" d="M252.8,297.5L252.8,297.5v1.6V297.5z"></path> </g> <g class="st4"> <path class="st3" d="M252.8,297.5L252.8,297.5v1.6V297.5z"></path> </g> <g class="st2"> <path class="st3" d="M231.3,147.7c-11.9,0-21.5,9.7-21.5,21.6c0,2.6,0.5,5.2,1.4,7.6c0.3,0.9,0.7,1.8,1.2,2.6 c0.7,1.2,1.4,2.3,2.3,3.3c1,1.2,2.1,2.3,3.3,3.3c2.6,2,5.7,3.4,8.9,4c7,1.6,14.4-0.6,19.5-5.6c0.5-0.5,1.1-1.1,1.6-1.7 c0.9-1,1.7-2.1,2.3-3.3c1.3-2.3,2.1-4.9,2.4-7.5v-1.1v-1.6l0,0C252.7,157.4,243.1,147.7,231.3,147.7z"></path> </g> <g class="st4"> <path class="st3" d="M231.3,147.7c-11.9,0-21.5,9.7-21.5,21.6c0,2.6,0.5,5.2,1.4,7.6c0.3,0.9,0.7,1.8,1.2,2.6 c0.7,1.2,1.4,2.3,2.3,3.3c1,1.2,2.1,2.3,3.3,3.3c2.6,2,5.7,3.4,8.9,4c7,1.6,14.4-0.6,19.5-5.6c0.5-0.5,1.1-1.1,1.6-1.7 c0.9-1,1.7-2.1,2.3-3.3c1.3-2.3,2.1-4.9,2.4-7.5v-1.1v-1.6l0,0C252.7,157.4,243.1,147.7,231.3,147.7z"></path> </g> <g class="st6"> <path class="st3" d="M231.3,190.8c-1.5,0-2.9-0.2-4.4-0.5C228.3,190.6,229.8,190.8,231.3,190.8z"></path> </g> <g class="st2"> <path class="st3" d="M231.3,190.8c-1.5,0-2.9-0.2-4.4-0.5C228.3,190.6,229.8,190.8,231.3,190.8z"></path> </g> <g class="st2"> <path class="st3" d="M231.3,190.8c-1.5,0-2.9-0.2-4.4-0.5C228.3,190.6,229.8,190.8,231.3,190.8z"></path> </g> <g class="st4"> <path class="st3" d="M231.3,190.8c-1.5,0-2.9-0.2-4.4-0.5C228.3,190.6,229.8,190.8,231.3,190.8z"></path> </g> <g class="st6"> <path class="st8" d="M212.3,307.7c-0.5-0.8-0.8-1.7-1.2-2.6"></path> </g> <g class="st2"> <path class="st8" d="M212.3,307.7c-0.5-0.8-0.8-1.7-1.2-2.6"></path> </g> <g class="st4"> <path class="st8" d="M212.3,307.7c-0.5-0.8-0.8-1.7-1.2-2.6"></path> </g> <g class="st6"> <path class="st8" d="M212.3,307.7c-0.5-0.8-0.8-1.7-1.2-2.6"></path> </g> <g class="st6"> <path class="st8" d="M212.3,307.7c-0.5-0.8-0.8-1.7-1.2-2.6"></path> </g> <g class="st4"> <path class="st8" d="M212.3,307.7c-0.5-0.8-0.8-1.7-1.2-2.6"></path> </g> <g class="st2"> <path class="st8" d="M212.3,307.7c-0.5-0.8-0.8-1.7-1.2-2.6"></path> </g> <g class="st4"> <path class="st8" d="M212.3,307.7c-0.5-0.8-0.8-1.7-1.2-2.6"></path> </g> <g class="st6"> <path class="st8" d="M252.8,300.2v-1.1"></path> </g> <g class="st2"> <path class="st8" d="M252.8,300.2v-1.1"></path> </g> <g class="st4"> <path class="st8" d="M252.8,300.2v-1.1"></path> </g> <g class="st6"> <path class="st8" d="M252.8,300.2v-1.1"></path> </g> <g class="st6"> <path class="st8" d="M252.8,300.2v-1.1"></path> </g> <g class="st4"> <path class="st8" d="M252.8,300.2v-1.1"></path> </g> <g class="st2"> <path class="st8" d="M252.8,300.2v-1.1"></path> </g> <g class="st4"> <path class="st8" d="M252.8,300.2v-1.1"></path> </g> <g class="st5"> <path class="st3" d="M710.1,407.6c11.8-0.1,21.4-9.7,21.4-21.6V-56.8l-1.6-1.6c-2.3-2.3-4.6-4.6-6.8-6.8l-2.7-2.6 c-3.2-3-6.3-6.1-9.6-9l-1.4-1.3c-2.8-2.5-5.7-5-8.5-7.5l-3.1-2.7c-2.4-2-4.9-4.1-7.3-6.1l-2-1.6V386c0,11.9,9.7,21.6,21.6,21.6 C710.1,407.6,710.1,407.6,710.1,407.6z"></path> </g> <g class="st2"> <path class="st3" d="M503.4,99.8c11.9,0,21.5,9.6,21.5,21.5c0,0,0,0,0,0V-70c-7.2-2-14.4-3.9-21.6-5.6c-1.1-0.3-2.3-0.5-3.3-0.7 c-2.6-0.6-5.1-1.2-7.7-1.7c-1.5-0.3-2.9-0.6-4.4-0.8c-2-0.4-4-0.8-6-1.2v201.4C481.9,109.5,491.5,99.9,503.4,99.8z"></path> </g> <g class="st9"> <path class="st3" d="M640.2-22.3c-11.9,0-21.5-9.6-21.5-21.5v0V200c0-11.9,9.7-21.6,21.6-21.6c11.9,0,21.6,9.7,21.6,21.6l0,0 V-43.9c0,11.9-9.6,21.5-21.5,21.5C640.3-22.3,640.3-22.3,640.2-22.3z"></path> </g> <g class="st9"> <path class="st3" d="M618.7-43.9L618.7-43.9c0,11.9,9.7,21.6,21.6,21.6c11.9,0,21.6-9.7,21.6-21.6v-25.9l-1.6-1.1l-5.2-3.3 l-4.4-2.9c-1.8-1.2-3.6-2.3-5.4-3.3c-1.8-1.1-3-1.9-4.5-2.8c-1.5-0.9-3.7-2.2-5.5-3.3l-4.4-2.6c-1.9-1.1-3.9-2.2-5.8-3.3 c-1.2-0.7-2.4-1.4-3.6-2c-1.8,3.2-2.8,6.9-2.8,10.6L618.7-43.9z"></path> </g> <g class="st6"> <path class="st3" d="M618.7-43.9L618.7-43.9c0,11.9,9.7,21.6,21.6,21.6c11.9,0,21.6-9.7,21.6-21.6v-25.9l-1.6-1.1l-5.2-3.3 l-4.4-2.9c-1.8-1.2-3.6-2.3-5.4-3.3c-1.8-1.1-3-1.9-4.5-2.8c-1.5-0.9-3.7-2.2-5.5-3.3l-4.4-2.6c-1.9-1.1-3.9-2.2-5.8-3.3 c-1.2-0.7-2.4-1.4-3.6-2c-1.8,3.2-2.8,6.9-2.8,10.6L618.7-43.9z"></path> </g> <path class="st3" d="M640.2,178.4c-11.9,0-21.5,9.6-21.5,21.5v0v127.8c14.4,14.4,28.8,28.8,43.2,43.2V200 c0-11.9-9.6-21.6-21.5-21.6C640.3,178.4,640.3,178.4,640.2,178.4z"></path> </g> </g> <g> <g> <rect x="0" y="227.9" class="st10" width="798.6" height="439.2"></rect> <polyline class="st10" points="0,667.1 399.3,800 798.6,667.1 "></polyline> </g> </g> <g> <path class="st11" d="M193.1,375.3c-3,2-6.5,3.6-10.5,4.8c-4,1.1-7.9,1.7-11.9,1.7c-5.7,0-10.9-0.9-15.5-2.7 c-4.7-1.8-8.7-4.3-12-7.5c-3.4-3.2-6-7-7.8-11.4c-1.8-4.4-2.8-9.2-2.8-14.3c0-5.2,0.9-10,2.8-14.4c1.8-4.4,4.4-8.2,7.8-11.4 c3.4-3.2,7.4-5.7,12-7.5c4.7-1.8,9.8-2.7,15.5-2.7c4.1,0,7.9,0.6,11.6,1.7c3.6,1.1,7.1,2.6,10.2,4.4l-4.9,13.7 c-2.6-1.5-5.3-2.6-8.1-3.4c-2.8-0.8-5.7-1.2-8.5-1.2c-3.2,0-6.2,0.5-8.8,1.4c-2.6,1-4.8,2.3-6.7,4.1c-1.8,1.8-3.2,4-4.2,6.6 c-1,2.6-1.5,5.5-1.5,8.7s0.5,6.1,1.5,8.7c1,2.6,2.4,4.8,4.2,6.6c1.8,1.8,4,3.2,6.7,4.2c2.6,1,5.6,1.5,8.8,1.5 c2.9,0,5.8-0.4,8.8-1.3c3-0.9,5.9-2.2,8.6-3.8L193.1,375.3z"></path> <path class="st11" d="M207.9,380.7V311h44.1v14.8h-28v12.5h25.5v14.1h-25.5v13.6h28v14.7H207.9z"></path> <path class="st11" d="M307.8,380.7l-11.9-22.7c-0.5,0.1-1,0.1-1.4,0.1c-0.4,0-0.9,0-1.4,0c-1.2,0-2.2,0-3,0 c-0.8,0-1.8-0.1-2.9-0.1v22.8H271v-69c3-0.3,6.1-0.6,9.4-0.8c3.3-0.2,7-0.3,11.1-0.3c5.5,0,10.1,0.6,13.9,1.8 c3.8,1.2,6.9,2.9,9.4,4.9c2.4,2.1,4.2,4.5,5.3,7.4c1.1,2.8,1.7,5.8,1.7,9c0,4.2-1,8-3.1,11.6c-2.1,3.5-5,6.4-8.8,8.6l16.4,26.9 H307.8z M305,334.2c0-2.9-1-5.2-3.1-6.8c-2.1-1.6-4.9-2.4-8.4-2.4c-1.3,0-2.3,0-3.2,0.1c-0.9,0.1-1.9,0.2-3,0.4v19.2 c1.1,0.1,2,0.2,2.7,0.2c0.7,0,1.5,0,2.5,0c3.9,0,6.9-0.9,9.2-2.7C303.8,340.4,305,337.7,305,334.2z"></path> <path class="st11" d="M370.9,325.8v54.9h-16.2v-54.9h-20.9V311h58v14.8H370.9z"></path> <path class="st11" d="M405.5,380.7V311h16.2v69.7H405.5z"></path> <path class="st11" d="M458,325.8v15.4h24v14.2h-24v25.3h-16.2V311h44.1v14.8H458z"></path> <path class="st11" d="M500.9,380.7V311h16.2v69.7H500.9z"></path> <path class="st11" d="M537.2,380.7V311h44.1v14.8h-28v12.5h25.5v14.1h-25.5v13.6h28v14.7H537.2z"></path> <path class="st11" d="M663.3,345.2c0,5.1-0.8,9.9-2.5,14.3c-1.6,4.4-4.2,8.2-7.6,11.4c-3.4,3.2-7.7,5.7-13,7.6 c-5.3,1.8-11.5,2.8-18.7,2.8c-2,0-3.9,0-5.6,0c-1.7,0-3.3-0.1-4.9-0.2c-1.6-0.1-3.3-0.2-5-0.4c-1.7-0.2-3.6-0.3-5.8-0.5v-68.5 c4.1-0.4,7.6-0.7,10.7-0.9c3.1-0.2,6.4-0.2,9.9-0.2c7.2,0,13.5,0.9,18.8,2.7c5.3,1.8,9.7,4.2,13.2,7.3c3.5,3.1,6.1,6.8,7.8,11 C662.5,335.7,663.3,340.2,663.3,345.2z M646.1,345.2c0-6.3-1.9-11.3-5.8-14.9c-3.9-3.6-9.6-5.4-17.2-5.4c-1.4,0-2.5,0-3.4,0.1 c-0.9,0.1-2,0.2-3.2,0.3v41.1c0.8,0.1,1.4,0.1,1.9,0.2c0.5,0.1,1.1,0.1,1.7,0.1c0.6,0,1.2,0,1.8,0c0.6,0,1.4,0,2.3,0 c3.8,0,7.1-0.5,9.8-1.5c2.8-1,5-2.5,6.8-4.4c1.8-1.9,3.1-4.2,4-6.8C645.7,351.4,646.1,348.4,646.1,345.2z"></path> <path class="st1" d="M299,467.5v34.9c-4.6,3.3-9.4,5.8-14.6,7.4c-5.2,1.6-10.9,2.4-17,2.4c-7.3,0-13.9-1.1-19.8-3.4 c-5.9-2.3-10.9-5.4-15.1-9.5c-4.2-4.1-7.4-9-9.6-14.7c-2.2-5.7-3.4-12-3.4-18.9c0-6.9,1.1-13.3,3.3-19c2.2-5.7,5.3-10.6,9.3-14.7 c4-4.1,8.9-7.2,14.7-9.5c5.8-2.2,12.2-3.4,19.3-3.4c3.6,0,6.9,0.3,10,0.8c3.1,0.5,5.9,1.3,8.6,2.3c2.6,1,5.1,2.2,7.3,3.6 c2.2,1.4,4.3,3,6.3,4.8l-3.5,5.6c-0.6,0.8-1.3,1.4-2.1,1.6c-0.9,0.2-1.8,0-2.9-0.6c-1-0.6-2.2-1.3-3.5-2.2 c-1.3-0.8-2.9-1.7-4.8-2.4c-1.9-0.8-4.1-1.4-6.7-2c-2.6-0.5-5.6-0.8-9.1-0.8c-5.1,0-9.8,0.8-13.9,2.5c-4.1,1.7-7.7,4.1-10.6,7.2 c-2.9,3.1-5.2,6.9-6.7,11.3c-1.6,4.4-2.3,9.4-2.3,14.9c0,5.7,0.8,10.8,2.4,15.3c1.6,4.5,4,8.3,7,11.5c3,3.2,6.7,5.6,11,7.2 c4.3,1.7,9.2,2.5,14.5,2.5c4.2,0,8-0.5,11.3-1.4c3.3-1,6.5-2.3,9.6-4v-20h-14.2c-0.8,0-1.4-0.2-1.9-0.7c-0.5-0.5-0.7-1-0.7-1.7v-7 H299z"></path> <path class="st1" d="M324.1,426.8c0,1.1-0.2,2.1-0.7,3.1c-0.4,1-1,1.8-1.8,2.5c-0.7,0.7-1.6,1.3-2.6,1.7c-1,0.4-2,0.6-3.1,0.6 c-1.1,0-2.1-0.2-3.1-0.6c-1-0.4-1.8-1-2.5-1.7c-0.7-0.7-1.3-1.6-1.7-2.5c-0.4-1-0.6-2-0.6-3.1c0-1.1,0.2-2.1,0.6-3.1 c0.4-1,1-1.9,1.7-2.6c0.7-0.7,1.6-1.3,2.5-1.7c1-0.4,2-0.6,3.1-0.6c1.1,0,2.1,0.2,3.1,0.6c1,0.4,1.9,1,2.6,1.7 c0.7,0.7,1.3,1.6,1.8,2.6C323.9,424.6,324.1,425.7,324.1,426.8z M321.7,446.9v64.3h-11.3v-64.3H321.7z"></path> <path class="st1" d="M353.6,512.2c-5.1,0-9-1.4-11.7-4.3c-2.7-2.8-4.1-6.9-4.1-12.2v-39.4H330c-0.7,0-1.2-0.2-1.7-0.6 c-0.5-0.4-0.7-1-0.7-1.9v-4.5l10.5-1.3l2.6-19.9c0.1-0.6,0.4-1.2,0.9-1.6c0.4-0.4,1-0.6,1.7-0.6h5.7v22.1h18.6v8.2H349V495 c0,2.7,0.7,4.7,2,6c1.3,1.3,3,2,5.1,2c1.2,0,2.2-0.2,3.1-0.5c0.9-0.3,1.6-0.7,2.3-1c0.6-0.4,1.2-0.7,1.6-1 c0.4-0.3,0.8-0.5,1.2-0.5c0.6,0,1.1,0.4,1.6,1.1l3.3,5.4c-1.9,1.8-4.3,3.2-7,4.3C359.3,511.7,356.5,512.2,353.6,512.2z"></path> <path class="st1" d="M461.5,465.8c0,6.8-1.1,13.1-3.2,18.8c-2.2,5.7-5.2,10.6-9.1,14.7c-3.9,4.1-8.7,7.3-14.2,9.6 c-5.5,2.3-11.6,3.4-18.3,3.4c-6.7,0-12.8-1.1-18.3-3.4c-5.5-2.3-10.2-5.4-14.2-9.6c-3.9-4.1-7-9-9.1-14.7 c-2.2-5.7-3.2-11.9-3.2-18.8c0-6.8,1.1-13.1,3.2-18.8c2.2-5.7,5.2-10.6,9.1-14.7c3.9-4.1,8.7-7.3,14.2-9.6 c5.5-2.3,11.6-3.4,18.3-3.4c6.7,0,12.8,1.1,18.3,3.4c5.5,2.3,10.3,5.5,14.2,9.6c3.9,4.1,7,9,9.1,14.7 C460.4,452.7,461.5,459,461.5,465.8z M448.9,465.8c0-5.6-0.8-10.6-2.3-15c-1.5-4.4-3.7-8.2-6.5-11.3c-2.8-3.1-6.2-5.4-10.2-7.1 c-4-1.7-8.4-2.5-13.3-2.5c-4.9,0-9.3,0.8-13.3,2.5c-4,1.7-7.4,4-10.2,7.1c-2.8,3.1-5,6.8-6.5,11.3c-1.5,4.4-2.3,9.5-2.3,15 c0,5.6,0.8,10.6,2.3,15c1.5,4.4,3.7,8.2,6.5,11.2c2.8,3.1,6.2,5.4,10.2,7c4,1.6,8.4,2.4,13.3,2.4c4.9,0,9.4-0.8,13.3-2.4 c4-1.6,7.4-4,10.2-7c2.8-3.1,5-6.8,6.5-11.2C448.1,476.4,448.9,471.4,448.9,465.8z"></path> <path class="st1" d="M482.3,456.9c2.7-3.3,5.8-6,9.4-8.1c3.6-2,7.6-3,12.2-3c3.7,0,7.1,0.7,10.1,2.1c3,1.4,5.6,3.5,7.7,6.3 c2.1,2.8,3.7,6.2,4.9,10.3c1.1,4.1,1.7,8.8,1.7,14.2c0,4.7-0.6,9.2-1.9,13.2c-1.3,4.1-3.1,7.6-5.5,10.6c-2.4,3-5.3,5.3-8.8,7 c-3.4,1.7-7.3,2.6-11.6,2.6c-3.9,0-7.3-0.7-10.1-2c-2.8-1.3-5.3-3.2-7.5-5.6V533h-11.4v-86.1h6.8c1.6,0,2.6,0.8,3,2.3L482.3,456.9 z M482.9,495.7c2.1,2.8,4.3,4.8,6.8,5.9c2.5,1.1,5.2,1.7,8.3,1.7c6,0,10.6-2.1,13.8-6.4c3.2-4.3,4.8-10.4,4.8-18.3 c0-4.2-0.4-7.8-1.1-10.8c-0.7-3-1.8-5.5-3.2-7.4c-1.4-1.9-3.1-3.3-5.1-4.2c-2-0.9-4.3-1.3-6.9-1.3c-3.7,0-6.9,0.8-9.7,2.5 c-2.8,1.7-5.3,4.1-7.6,7.2V495.7z"></path> <path class="st1" d="M573.8,457.5c-0.5,0.9-1.3,1.4-2.3,1.4c-0.6,0-1.4-0.2-2.2-0.7c-0.8-0.5-1.8-1-3-1.6 c-1.2-0.6-2.5-1.1-4.2-1.6c-1.6-0.5-3.5-0.7-5.7-0.7c-1.9,0-3.6,0.2-5.1,0.7c-1.5,0.5-2.8,1.2-3.9,2c-1.1,0.8-1.9,1.8-2.5,3 c-0.6,1.1-0.9,2.3-0.9,3.6c0,1.7,0.5,3,1.4,4.1c1,1.1,2.2,2.1,3.8,2.9c1.6,0.8,3.3,1.5,5.3,2.1c2,0.6,4,1.3,6.1,2 c2.1,0.7,4.1,1.5,6.1,2.3c2,0.8,3.8,1.9,5.3,3.2c1.6,1.3,2.8,2.8,3.8,4.7c1,1.8,1.4,4.1,1.4,6.6c0,3-0.5,5.7-1.6,8.2 c-1.1,2.5-2.6,4.7-4.7,6.5c-2.1,1.8-4.6,3.3-7.6,4.3c-3,1.1-6.5,1.6-10.4,1.6c-4.5,0-8.5-0.7-12.2-2.2c-3.6-1.5-6.7-3.3-9.3-5.6 l2.7-4.3c0.3-0.5,0.7-1,1.2-1.3c0.5-0.3,1.1-0.4,1.8-0.4c0.8,0,1.6,0.3,2.4,0.9c0.8,0.6,1.9,1.2,3.1,2c1.2,0.7,2.7,1.4,4.4,2 c1.7,0.6,3.9,0.9,6.5,0.9c2.2,0,4.1-0.3,5.8-0.9c1.7-0.6,3-1.3,4.1-2.3c1.1-1,1.9-2.1,2.4-3.4c0.5-1.3,0.8-2.6,0.8-4.1 c0-1.8-0.5-3.2-1.4-4.4c-1-1.2-2.2-2.2-3.8-3c-1.6-0.8-3.4-1.5-5.4-2.2c-2-0.6-4.1-1.3-6.2-1.9c-2.1-0.7-4.1-1.4-6.2-2.3 c-2-0.9-3.8-2-5.4-3.3c-1.6-1.3-2.8-2.9-3.8-4.9c-1-1.9-1.4-4.3-1.4-7c0-2.5,0.5-4.8,1.5-7.1c1-2.3,2.5-4.3,4.4-6 c1.9-1.7,4.3-3.1,7.2-4.1c2.8-1,6.1-1.5,9.7-1.5c4.2,0,8,0.7,11.4,2c3.4,1.3,6.3,3.2,8.7,5.5L573.8,457.5z"></path> <path class="st11" d="M161.7,625.3l-5.2-12.6h-24.1l-5.2,12.6h-16.5l32.8-70.3h2.2l32.8,70.3H161.7z M144.5,583.6l-6.9,16.7h13.8 L144.5,583.6z"></path> <path class="st11" d="M235.2,604.8c0,2.8-0.5,5.5-1.5,8.1c-1,2.6-2.6,4.9-4.6,6.9c-2.1,2-4.6,3.6-7.7,4.8 c-3.1,1.2-6.8,1.8-10.9,1.8c-2,0-4-0.2-6.1-0.6c-2.1-0.4-4.2-0.9-6.3-1.5c-2.1-0.6-4-1.4-5.9-2.2c-1.9-0.9-3.6-1.8-5.1-2.8 l4.5-14.6c2.9,2,6,3.7,9.4,4.9c3.4,1.2,6.8,1.9,10.1,1.9c2.9,0,4.9-0.6,6.1-1.8c1.2-1.2,1.8-2.6,1.8-4.3c0-0.9-0.1-1.7-0.4-2.5 c-0.3-0.8-0.9-1.6-1.8-2.4c-0.9-0.8-2.2-1.7-3.8-2.5c-1.6-0.9-3.8-1.8-6.4-2.9c-3-1.3-5.6-2.6-7.7-4.1c-2.1-1.5-3.8-3.1-5.1-4.8 c-1.3-1.7-2.2-3.5-2.8-5.5c-0.6-1.9-0.9-3.9-0.9-6c0-2.5,0.5-5,1.6-7.4c1-2.4,2.6-4.5,4.6-6.4c2-1.9,4.6-3.4,7.7-4.5 c3.1-1.1,6.6-1.7,10.7-1.7c1.9,0,3.8,0.2,5.7,0.5c1.9,0.3,3.7,0.7,5.4,1.2c1.7,0.5,3.3,1.1,4.8,1.7c1.5,0.6,2.7,1.3,3.7,2 l-4.1,14.5c-1-0.7-2.2-1.4-3.4-2c-1.3-0.7-2.6-1.3-3.9-1.8c-1.4-0.5-2.7-1-4.1-1.3c-1.4-0.3-2.7-0.5-3.9-0.5c-3,0-5.1,0.6-6.4,1.7 c-1.3,1.1-1.9,2.4-1.9,3.9c0,1.1,0.2,2.1,0.7,2.9c0.4,0.8,1.2,1.6,2.2,2.3c1,0.7,2.3,1.4,3.9,2.1c1.6,0.7,3.4,1.5,5.6,2.5 c3.2,1.4,5.9,2.8,8.1,4.3c2.2,1.5,3.9,3.1,5.2,4.8c1.3,1.7,2.2,3.5,2.8,5.4C234.9,600.5,235.2,602.6,235.2,604.8z"></path> <path class="st11" d="M294.6,604.8c0,2.8-0.5,5.5-1.5,8.1c-1,2.6-2.6,4.9-4.6,6.9c-2.1,2-4.6,3.6-7.7,4.8 c-3.1,1.2-6.8,1.8-10.9,1.8c-2,0-4-0.2-6.1-0.6c-2.1-0.4-4.2-0.9-6.3-1.5c-2.1-0.6-4-1.4-5.9-2.2c-1.9-0.9-3.6-1.8-5.1-2.8 l4.5-14.6c2.9,2,6,3.7,9.4,4.9c3.4,1.2,6.8,1.9,10.1,1.9c2.9,0,4.9-0.6,6.1-1.8c1.2-1.2,1.8-2.6,1.8-4.3c0-0.9-0.1-1.7-0.4-2.5 c-0.3-0.8-0.9-1.6-1.8-2.4c-0.9-0.8-2.2-1.7-3.8-2.5c-1.6-0.9-3.8-1.8-6.4-2.9c-3-1.3-5.6-2.6-7.7-4.1c-2.1-1.5-3.8-3.1-5.1-4.8 c-1.3-1.7-2.2-3.5-2.8-5.5c-0.6-1.9-0.9-3.9-0.9-6c0-2.5,0.5-5,1.6-7.4c1-2.4,2.6-4.5,4.6-6.4c2-1.9,4.6-3.4,7.7-4.5 c3.1-1.1,6.6-1.7,10.7-1.7c1.9,0,3.8,0.2,5.7,0.5c1.9,0.3,3.7,0.7,5.4,1.2c1.7,0.5,3.3,1.1,4.8,1.7c1.5,0.6,2.7,1.3,3.7,2 l-4.1,14.5c-1-0.7-2.2-1.4-3.4-2c-1.3-0.7-2.6-1.3-3.9-1.8c-1.4-0.5-2.7-1-4.1-1.3c-1.4-0.3-2.7-0.5-3.9-0.5c-3,0-5.1,0.6-6.4,1.7 c-1.3,1.1-1.9,2.4-1.9,3.9c0,1.1,0.2,2.1,0.7,2.9c0.4,0.8,1.2,1.6,2.2,2.3c1,0.7,2.3,1.4,3.9,2.1c1.6,0.7,3.4,1.5,5.6,2.5 c3.2,1.4,5.9,2.8,8.1,4.3c2.2,1.5,3.9,3.1,5.2,4.8c1.3,1.7,2.2,3.5,2.8,5.4C294.4,600.5,294.6,602.6,294.6,604.8z"></path> <path class="st11" d="M378.5,590.5c0,5.1-0.9,9.9-2.6,14.3c-1.7,4.4-4.2,8.2-7.4,11.4c-3.2,3.2-7,5.7-11.4,7.6 c-4.4,1.8-9.3,2.8-14.7,2.8c-5.4,0-10.3-0.9-14.6-2.8c-4.4-1.8-8.1-4.4-11.2-7.6c-3.1-3.2-5.4-7-7.1-11.4 c-1.6-4.4-2.5-9.1-2.5-14.3s0.9-9.9,2.6-14.3c1.7-4.4,4.2-8.2,7.3-11.4c3.1-3.2,6.9-5.7,11.4-7.6c4.4-1.8,9.3-2.8,14.7-2.8 c5.4,0,10.3,0.9,14.6,2.8c4.3,1.8,8,4.4,11.1,7.6c3.1,3.2,5.5,7,7.1,11.4C377.6,580.6,378.5,585.4,378.5,590.5z M361.2,590.5 c0-3.2-0.4-6.1-1.3-8.7c-0.9-2.6-2.1-4.9-3.8-6.8c-1.6-1.9-3.6-3.4-5.8-4.5c-2.3-1.1-4.8-1.6-7.6-1.6c-2.7,0-5.2,0.5-7.5,1.6 c-2.3,1.1-4.2,2.6-5.8,4.5c-1.6,1.9-2.9,4.2-3.8,6.8c-0.9,2.6-1.3,5.5-1.3,8.7c0,3.1,0.4,6,1.3,8.6c0.9,2.6,2.1,4.9,3.8,6.8 c1.6,1.9,3.6,3.4,5.8,4.5c2.3,1.1,4.8,1.6,7.5,1.6c2.8,0,5.3-0.5,7.6-1.6c2.2-1.1,4.2-2.6,5.8-4.5c1.6-1.9,2.9-4.2,3.8-6.8 C360.7,596.5,361.2,593.6,361.2,590.5z"></path> <path class="st11" d="M452.7,620c-3,2-6.5,3.6-10.5,4.8c-4,1.1-7.9,1.7-11.9,1.7c-5.7,0-10.9-0.9-15.5-2.7 c-4.7-1.8-8.7-4.3-12-7.5c-3.4-3.2-6-7-7.8-11.4c-1.8-4.4-2.8-9.2-2.8-14.3c0-5.2,0.9-10,2.8-14.4c1.8-4.4,4.4-8.2,7.8-11.4 c3.4-3.2,7.4-5.7,12-7.5c4.7-1.8,9.8-2.7,15.5-2.7c4.1,0,7.9,0.6,11.6,1.7c3.6,1.1,7.1,2.6,10.2,4.4l-4.9,13.7 c-2.6-1.5-5.3-2.6-8.1-3.4c-2.8-0.8-5.7-1.2-8.5-1.2c-3.2,0-6.2,0.5-8.8,1.4c-2.6,1-4.8,2.3-6.7,4.1c-1.8,1.8-3.2,4-4.2,6.6 c-1,2.6-1.5,5.5-1.5,8.7s0.5,6.1,1.5,8.7c1,2.6,2.4,4.8,4.2,6.6c1.8,1.8,4,3.2,6.7,4.2c2.6,1,5.6,1.5,8.8,1.5 c2.9,0,5.8-0.4,8.8-1.3c3-0.9,5.9-2.2,8.6-3.8L452.7,620z"></path> <path class="st11" d="M467.7,625.3v-69.7h16.2v69.7H467.7z"></path> <path class="st11" d="M547,625.3l-5.2-12.6h-24.1l-5.2,12.6h-16.5l32.8-70.3h2.2l32.8,70.3H547z M529.8,583.6l-6.9,16.7h13.8 L529.8,583.6z"></path> <path class="st11" d="M599,570.5v54.9h-16.2v-54.9h-20.9v-14.8h58v14.8H599z"></path> <path class="st11" d="M633.4,625.3v-69.7h44.1v14.8h-28v12.5h25.5V597h-25.5v13.6h28v14.7H633.4z"></path> </g> </g> </svg> 